<svg height="100" width="100">
        <symbol id="circle">
            <pattern height="100" id="dots-square-grid-04" patternContentUnits="userSpaceOnUse" patternUnits="userSpaceOnUse" width="100">
              <g id="row-1">
                <!-- <ellipse cx="5" cy="5" rx="2" ry="2" style="fill:white;stroke:none;stroke-width:0"/> -->
                <!-- <ellipse cx="15" cy="5" rx="2" ry="2" style="fill:white;stroke:none;stroke-width:0"/> -->
                <!-- <ellipse cx="25" cy="5" rx="2" ry="2" style="fill:white;stroke:none;stroke-width:0"/> -->
                <!-- <ellipse cx="35" cy="5" rx="2" ry="2" style="fill:white;stroke:none;stroke-width:0"/>
                <ellipse cx="45" cy="5" rx="2" ry="2" style="fill:white;stroke:none;stroke-width:0"/> -->
                <ellipse cx="55" cy="5" rx="2" ry="2" style="fill:white;stroke:none;stroke-width:0"/>
                <ellipse cx="65" cy="5" rx="2" ry="2" style="fill:white;stroke:none;stroke-width:0"/>
                <ellipse cx="75" cy="5" rx="2" ry="2" style="fill:white;stroke:none;stroke-width:0"/>
                <ellipse cx="85" cy="5" rx="2" ry="2" style="fill:white;stroke:none;stroke-width:0"/>
                <ellipse cx="95" cy="5" rx="2" ry="2" style="fill:white;stroke:none;stroke-width:0"/>
              </g>
              <g id="row-2">
                <!-- <ellipse cx="5" cy="15" rx="2" ry="2" style="fill:white;stroke:none;stroke-width:0"/>
                <ellipse cx="15" cy="15" rx="2" ry="2" style="fill:white;stroke:none;stroke-width:0"/> -->
                <!-- <ellipse cx="25" cy="15" rx="2" ry="2" style="fill:white;stroke:none;stroke-width:0"/> -->
                <!-- <ellipse cx="35" cy="15" rx="2" ry="2" style="fill:white;stroke:none;stroke-width:0"/>
                <ellipse cx="45" cy="15" rx="2" ry="2" style="fill:white;stroke:none;stroke-width:0"/> -->
                <ellipse cx="55" cy="15" rx="2" ry="2" style="fill:white;stroke:none;stroke-width:0"/>
                <ellipse cx="65" cy="15" rx="2" ry="2" style="fill:white;stroke:none;stroke-width:0"/>
                <ellipse cx="75" cy="15" rx="2" ry="2" style="fill:white;stroke:none;stroke-width:0"/>
                <ellipse cx="85" cy="15" rx="2" ry="2" style="fill:white;stroke:none;stroke-width:0"/>
                <ellipse cx="95" cy="15" rx="2" ry="2" style="fill:white;stroke:none;stroke-width:0"/>
              </g>
              <g id="row-3">
                <!-- <ellipse cx="5" cy="25" rx="2" ry="2" style="fill:white;stroke:none;stroke-width:0"/>
                <ellipse cx="15" cy="25" rx="2" ry="2" style="fill:white;stroke:none;stroke-width:0"/>
                <ellipse cx="25" cy="25" rx="2" ry="2" style="fill:white;stroke:none;stroke-width:0"/>
                <ellipse cx="35" cy="25" rx="2" ry="2" style="fill:white;stroke:none;stroke-width:0"/>
                <ellipse cx="45" cy="25" rx="2" ry="2" style="fill:white;stroke:none;stroke-width:0"/> -->
                <ellipse cx="55" cy="25" rx="2" ry="2" style="fill:white;stroke:none;stroke-width:0"/>
                <ellipse cx="65" cy="25" rx="2" ry="2" style="fill:white;stroke:none;stroke-width:0"/>
                <ellipse cx="75" cy="25" rx="2" ry="2" style="fill:white;stroke:none;stroke-width:0"/>
                <ellipse cx="85" cy="25" rx="2" ry="2" style="fill:white;stroke:none;stroke-width:0"/>
                <ellipse cx="95" cy="25" rx="2" ry="2" style="fill:white;stroke:none;stroke-width:0"/>
              </g>
              <g id="row-4">
                <!-- <ellipse cx="5" cy="35" rx="2" ry="2" style="fill:white;stroke:none;stroke-width:0"/>
                <ellipse cx="15" cy="35" rx="2" ry="2" style="fill:white;stroke:none;stroke-width:0"/>
                <ellipse cx="25" cy="35" rx="2" ry="2" style="fill:white;stroke:none;stroke-width:0"/>
                <ellipse cx="35" cy="35" rx="2" ry="2" style="fill:white;stroke:none;stroke-width:0"/>
                <ellipse cx="45" cy="35" rx="2" ry="2" style="fill:white;stroke:none;stroke-width:0"/> -->
                <ellipse cx="55" cy="35" rx="2" ry="2" style="fill:white;stroke:none;stroke-width:0"/>
                <ellipse cx="65" cy="35" rx="2" ry="2" style="fill:white;stroke:none;stroke-width:0"/>
                <ellipse cx="75" cy="35" rx="2" ry="2" style="fill:white;stroke:none;stroke-width:0"/>
                <ellipse cx="85" cy="35" rx="2" ry="2" style="fill:white;stroke:none;stroke-width:0"/>
                <ellipse cx="95" cy="35" rx="2" ry="2" style="fill:white;stroke:none;stroke-width:0"/>
              </g>
              <g id="row-5">
                <!-- <ellipse cx="5" cy="45" rx="2" ry="2" style="fill:white;stroke:none;stroke-width:0"/>
                <ellipse cx="15" cy="45" rx="2" ry="2" style="fill:white;stroke:none;stroke-width:0"/>
                <ellipse cx="25" cy="45" rx="2" ry="2" style="fill:white;stroke:none;stroke-width:0"/>
                <ellipse cx="35" cy="45" rx="2" ry="2" style="fill:white;stroke:none;stroke-width:0"/>
                <ellipse cx="45" cy="45" rx="2" ry="2" style="fill:white;stroke:none;stroke-width:0"/> -->
                <ellipse cx="55" cy="45" rx="2" ry="2" style="fill:white;stroke:none;stroke-width:0"/>
                <ellipse cx="65" cy="45" rx="2" ry="2" style="fill:white;stroke:none;stroke-width:0"/>
                <ellipse cx="75" cy="45" rx="2" ry="2" style="fill:white;stroke:none;stroke-width:0"/>
                <ellipse cx="85" cy="45" rx="2" ry="2" style="fill:white;stroke:none;stroke-width:0"/>
                <ellipse cx="95" cy="45" rx="2" ry="2" style="fill:white;stroke:none;stroke-width:0"/>
              </g>
              <g id="row-6">
                <ellipse cx="5" cy="55" rx="2" ry="2" style="fill:white;stroke:none;stroke-width:0"/>
                <ellipse cx="15" cy="55" rx="2" ry="2" style="fill:white;stroke:none;stroke-width:0"/>
                <ellipse cx="25" cy="55" rx="2" ry="2" style="fill:white;stroke:none;stroke-width:0"/>
                <ellipse cx="35" cy="55" rx="2" ry="2" style="fill:white;stroke:none;stroke-width:0"/>
                <ellipse cx="45" cy="55" rx="2" ry="2" style="fill:white;stroke:none;stroke-width:0"/>
                <ellipse cx="55" cy="55" rx="2" ry="2" style="fill:white;stroke:none;stroke-width:0"/>
                <ellipse cx="65" cy="55" rx="2" ry="2" style="fill:white;stroke:none;stroke-width:0"/>
                <ellipse cx="75" cy="55" rx="2" ry="2" style="fill:white;stroke:none;stroke-width:0"/>
                <ellipse cx="85" cy="55" rx="2" ry="2" style="fill:white;stroke:none;stroke-width:0"/>
                <ellipse cx="95" cy="55" rx="2" ry="2" style="fill:white;stroke:none;stroke-width:0"/>
              </g>
              <g id="row-7">
                <ellipse cx="5" cy="65" rx="2" ry="2" style="fill:white;stroke:none;stroke-width:0"/>
                <ellipse cx="15" cy="65" rx="2" ry="2" style="fill:white;stroke:none;stroke-width:0"/>
                <ellipse cx="25" cy="65" rx="2" ry="2" style="fill:white;stroke:none;stroke-width:0"/>
                <ellipse cx="35" cy="65" rx="2" ry="2" style="fill:white;stroke:none;stroke-width:0"/>
                <ellipse cx="45" cy="65" rx="2" ry="2" style="fill:white;stroke:none;stroke-width:0"/>
                <ellipse cx="55" cy="65" rx="2" ry="2" style="fill:white;stroke:none;stroke-width:0"/>
                <ellipse cx="65" cy="65" rx="2" ry="2" style="fill:white;stroke:none;stroke-width:0"/>
                <ellipse cx="75" cy="65" rx="2" ry="2" style="fill:white;stroke:none;stroke-width:0"/>
                <ellipse cx="85" cy="65" rx="2" ry="2" style="fill:white;stroke:none;stroke-width:0"/>
                <ellipse cx="95" cy="65" rx="2" ry="2" style="fill:white;stroke:none;stroke-width:0"/>
              </g>
              <g id="row-8">
                <ellipse cx="5" cy="75" rx="2" ry="2" style="fill:white;stroke:none;stroke-width:0"/>
                <ellipse cx="15" cy="75" rx="2" ry="2" style="fill:white;stroke:none;stroke-width:0"/>
                <ellipse cx="25" cy="75" rx="2" ry="2" style="fill:white;stroke:none;stroke-width:0"/>
                <ellipse cx="35" cy="75" rx="2" ry="2" style="fill:white;stroke:none;stroke-width:0"/>
                <ellipse cx="45" cy="75" rx="2" ry="2" style="fill:white;stroke:none;stroke-width:0"/>
                <ellipse cx="55" cy="75" rx="2" ry="2" style="fill:white;stroke:none;stroke-width:0"/>
                <ellipse cx="65" cy="75" rx="2" ry="2" style="fill:white;stroke:none;stroke-width:0"/>
                <ellipse cx="75" cy="75" rx="2" ry="2" style="fill:white;stroke:none;stroke-width:0"/>
                <ellipse cx="85" cy="75" rx="2" ry="2" style="fill:white;stroke:none;stroke-width:0"/>
                <ellipse cx="95" cy="75" rx="2" ry="2" style="fill:white;stroke:none;stroke-width:0"/>
              </g>
              <g id="row-9">
                <ellipse cx="5" cy="85" rx="2" ry="2" style="fill:white;stroke:none;stroke-width:0"/>
                <ellipse cx="15" cy="85" rx="2" ry="2" style="fill:white;stroke:none;stroke-width:0"/>
                <ellipse cx="25" cy="85" rx="2" ry="2" style="fill:white;stroke:none;stroke-width:0"/>
                <ellipse cx="35" cy="85" rx="2" ry="2" style="fill:white;stroke:none;stroke-width:0"/>
                <ellipse cx="45" cy="85" rx="2" ry="2" style="fill:white;stroke:none;stroke-width:0"/>
                <ellipse cx="55" cy="85" rx="2" ry="2" style="fill:white;stroke:none;stroke-width:0"/>
                <ellipse cx="65" cy="85" rx="2" ry="2" style="fill:white;stroke:none;stroke-width:0"/>
                <ellipse cx="75" cy="85" rx="2" ry="2" style="fill:white;stroke:none;stroke-width:0"/>
                <ellipse cx="85" cy="85" rx="2" ry="2" style="fill:white;stroke:none;stroke-width:0"/>
                <ellipse cx="95" cy="85" rx="2" ry="2" style="fill:white;stroke:none;stroke-width:0"/>
              </g>
              <g id="row-10">
                <ellipse cx="5" cy="95" rx="2" ry="2" style="fill:white;stroke:none;stroke-width:0"/>
                <ellipse cx="15" cy="95" rx="2" ry="2" style="fill:white;stroke:none;stroke-width:0"/>
                <ellipse cx="25" cy="95" rx="2" ry="2" style="fill:white;stroke:none;stroke-width:0"/>
                <ellipse cx="35" cy="95" rx="2" ry="2" style="fill:white;stroke:none;stroke-width:0"/>
                <ellipse cx="45" cy="95" rx="2" ry="2" style="fill:white;stroke:none;stroke-width:0"/>
                <ellipse cx="55" cy="95" rx="2" ry="2" style="fill:white;stroke:none;stroke-width:0"/>
                <ellipse cx="65" cy="95" rx="2" ry="2" style="fill:white;stroke:none;stroke-width:0"/>
                <ellipse cx="75" cy="95" rx="2" ry="2" style="fill:white;stroke:none;stroke-width:0"/>
                <ellipse cx="85" cy="95" rx="2" ry="2" style="fill:white;stroke:none;stroke-width:0"/>
                <ellipse cx="95" cy="95" rx="2" ry="2" style="fill:white;stroke:none;stroke-width:0"/>
              </g>
            </pattern>
          <rect fill="url(#dots-square-grid-04)" height="100" width="100" x="0" y="0"/>
        </symbol>
      </svg>