<svg width="1020" height="437" viewBox="0 0 1020 437" fill="none" xmlns="http://www.w3.org/2000/svg">
<g id="web 1" clip-path="url(#clip0)">
<path id="Vector" d="M223.77 243.614C223.779 242.274 223.512 240.946 222.986 239.714C222.459 238.481 221.683 237.371 220.708 236.451C219.733 235.532 218.578 234.823 217.317 234.37C216.056 233.917 214.714 233.729 213.377 233.817C212.04 233.905 210.735 234.268 209.544 234.884C208.353 235.499 207.302 236.353 206.456 237.393C205.61 238.432 204.988 239.635 204.628 240.926C204.267 242.217 204.177 243.569 204.363 244.896L176.348 281.582C175.153 283.973 174.689 286.663 175.016 289.316C175.343 291.969 176.445 294.467 178.184 296.496L180.382 299.06L190.465 297.043L201.893 286.96L200.548 275.532L214.665 253.349L214.647 253.333C217.118 253.176 219.436 252.083 221.131 250.278C222.825 248.473 223.769 246.09 223.77 243.614V243.614Z" fill="#FFB9B9"/>
<path id="Vector_2" d="M30.041 422.968L25.468 405.984L88.8 380.265L95.549 405.331L30.041 422.968Z" fill="#FFB8B8"/>
<path id="Vector_3" d="M14.7441 431.732L0 376.97L0.692642 376.783C6.34562 375.261 12.3716 376.047 17.4451 378.968C22.5186 381.889 26.2241 386.706 27.7466 392.358L27.747 392.36L36.7521 425.807L14.7441 431.732Z" fill="#2F2E41"/>
<path id="Vector_4" d="M117.278 420.254L103.054 409.91L136.185 350.121L157.179 365.388L117.278 420.254Z" fill="#FFB8B8"/>
<path id="Vector_5" d="M110.879 436.681L65.0128 403.326L65.4347 402.746C68.878 398.011 74.0609 394.838 79.8435 393.925C85.626 393.012 91.5345 394.433 96.2695 397.875L96.2706 397.876L124.284 418.249L110.879 436.681Z" fill="#2F2E41"/>
<path id="Vector_6" d="M238.192 336.704L202.397 301.932C199.273 298.897 195.159 297.092 190.81 296.849C186.462 296.606 182.172 297.941 178.729 300.609L111.143 375.693L117.193 385.104L181.726 341.41L225.42 398.548L267.098 377.71L238.192 336.704Z" fill="#2F2E41"/>
<path id="Vector_7" d="M222.731 344.099L196.515 342.082L177.529 337.479C176.456 335.806 174.898 334.501 173.064 333.737C171.229 332.974 169.205 332.79 167.262 333.209C165.319 333.628 163.551 334.63 162.194 336.082C160.837 337.534 159.956 339.365 159.668 341.331C159.381 343.298 159.701 345.305 160.586 347.084C161.47 348.864 162.878 350.33 164.619 351.288C166.361 352.245 168.353 352.648 170.329 352.442C172.306 352.236 174.172 351.431 175.679 350.135L175.676 350.149L187.104 354.854L236.176 371.66L242.226 366.954L222.731 344.099Z" fill="#FFB9B9"/>
<path id="Vector_8" d="M285.92 416.699L271.131 426.11H253.653L172.315 395.86L53.332 417.371L49.971 391.826L158.871 344.099L254.326 375.693L285.92 416.699Z" fill="#2F2E41"/>
<path id="Vector_9" d="M322.159 331.804C322.159 347.626 319.666 363.349 314.772 378.395L312.809 384.432L303.398 427.454L293.315 430.143L285.92 420.732L271.131 409.976L260.376 392.499L251.153 377.132L248.276 372.332L238.192 321.915L199.876 300.404L187.104 298.388L189.793 290.993L201.22 275.532L212.648 274.188L216.009 271.499L218.698 272.843L233.521 278.554L281.578 258.25L288.609 259.399L312.809 279.566C318.995 296.287 322.161 313.975 322.159 331.804V331.804Z" fill="#CCCCCC"/>
<path id="Vector_10" opacity="0.1" d="M314.825 325.949L289.281 342.754L251.153 377.131L248.276 372.332L240.209 331.999H242.226L263.065 293.683L314.825 325.949Z" fill="black"/>
<path id="Vector_11" d="M263.065 289.649L242.226 327.965L230.126 341.41L219.371 344.099L248.276 375.693L289.281 338.721L314.825 321.915L263.065 289.649Z" fill="#CCCCCC"/>
<g id="head">
<path id="head1" d="M254.326 253.349C268.805 253.349 280.542 241.611 280.542 227.132C280.542 212.653 268.805 200.916 254.326 200.916C239.847 200.916 228.109 212.653 228.109 227.132C228.109 241.611 239.847 253.349 254.326 253.349Z" fill="#FFB9B9"/>
<path id="hair" d="M233.935 207.639L231.094 208.732C230.663 208.44 230.293 208.066 230.007 207.631C229.72 207.197 229.522 206.71 229.423 206.198C229.325 205.687 229.328 205.161 229.433 204.651C229.538 204.141 229.742 203.657 230.034 203.225C230.049 203.203 230.065 203.18 230.08 203.158L224.831 202.912C228.201 198.425 232.485 194.704 237.4 191.995C242.316 189.287 247.75 187.653 253.344 187.203C258.938 186.752 264.564 187.494 269.849 189.38C275.135 191.266 279.96 194.253 284.005 198.143C284.244 197.32 286.849 198.921 287.912 200.545C288.27 199.206 290.713 205.68 291.577 210.257C291.977 208.733 293.514 211.193 292.167 213.554C293.021 213.429 293.406 215.613 292.746 216.83C293.68 216.391 293.522 218.999 292.509 220.741C293.842 220.623 292.396 248.072 272.396 246.072C271.003 239.675 271.396 240.072 269.756 231.846C268.993 231.036 268.157 230.298 267.323 229.562L262.81 225.578C257.563 220.946 252.79 215.23 245.799 213.499C240.996 212.309 237.958 212.04 240.576 206.627C238.211 207.614 236.002 209.082 233.615 209.999C233.647 209.242 233.981 208.396 233.935 207.639Z" fill="#2F2E41"/>
</g>
<path id="Vector_12" d="M267.434 234.863C270.033 234.863 272.14 232.756 272.14 230.157C272.14 227.559 270.033 225.452 267.434 225.452C264.835 225.452 262.729 227.559 262.729 230.157C262.729 232.756 264.835 234.863 267.434 234.863Z" fill="#FFB9B9"/>
<path id="Vector_13" d="M47.9976 119.023L46.5616 140.585L68.124 142.021L69.56 120.458L47.9976 119.023Z" fill="#E6E6E6"/>
<path id="square3" d="M34.0856 130.472L60.2685 132.216L58.5248 158.398L32.3419 156.655L34.0856 130.472ZM59.0543 133.278L35.1482 131.686L33.5561 155.592L57.4622 157.184L59.0543 133.278Z" fill="#CCCCCC"/>
<path id="Vector_14" d="M169.85 55.0837L148.722 59.6235L153.262 80.7513L174.39 76.2116L169.85 55.0837Z" fill="#E6E6E6"/>
<path id="square1" d="M155.021 44.8502L160.533 70.5054L134.878 76.018L129.365 50.3627L155.021 44.8502ZM159.178 69.6297L154.145 46.2053L130.72 51.2385L135.754 74.6629L159.178 69.6297Z" fill="#CCCCCC"/>
<path id="Vector_15" d="M147.65 156.547L131.878 171.32L146.651 187.092L162.423 172.319L147.65 156.547Z" fill="#E6E6E6"/>
<path id="square2" d="M163.557 154.337L144.405 172.276L126.466 153.124L145.618 135.186L163.557 154.337ZM144.458 170.663L161.944 154.285L145.565 136.798L128.079 153.177L144.458 170.663Z" fill="#CCCCCC"/>
<path id="Vector_16" d="M963.277 0H323.894C321.583 -2.62643e-06 319.295 0.455194 317.16 1.3396C315.025 2.22401 313.084 3.52029 311.45 5.15446C309.816 6.78864 308.52 8.72868 307.635 10.8638C306.751 12.999 306.296 15.2874 306.296 17.5985V373.851C306.296 376.162 306.751 378.45 307.635 380.585C308.52 382.721 309.816 384.661 311.45 386.295C313.084 387.929 315.025 389.225 317.16 390.11C319.295 390.994 321.583 391.449 323.894 391.449H963.277C967.945 391.449 972.421 389.595 975.721 386.295C979.021 382.994 980.876 378.518 980.876 373.851V17.5985C980.876 12.9311 979.021 8.45484 975.721 5.15448C972.421 1.85412 967.945 2.65217e-06 963.277 0V0Z" fill="#3F3D56"/>
<path id="Vector_17" d="M957.281 31.1014H329.89V385.014H957.281V31.1014Z" fill="white"/>
<path id="Vector_18" d="M643.049 21.4493C646.603 21.4493 649.484 18.5683 649.484 15.0145C649.484 11.4607 646.603 8.57971 643.049 8.57971C639.496 8.57971 636.615 11.4607 636.615 15.0145C636.615 18.5683 639.496 21.4493 643.049 21.4493Z" fill="white"/>
<path id="Vector_19" d="M777.858 385.015H329.89V31.102L777.858 385.015Z" fill="#0D6EFD"/>
<path id="Vector_20" d="M912.893 52.2816H888.401V76.7733H912.893V52.2816Z" fill="#0D6EFD"/>
<path id="Vector_21" d="M924.264 88.1445H894.524V58.4045H924.264V88.1445ZM895.818 86.8515H922.971V59.6976H895.818L895.818 86.8515Z" fill="#CCCCCC"/>
<path id="Vector_22" d="M998.491 378.58H937.262V374.168C937.262 374.053 937.239 373.94 937.195 373.833C937.151 373.727 937.087 373.631 937.006 373.55C936.925 373.468 936.828 373.404 936.722 373.36C936.616 373.316 936.502 373.293 936.387 373.293H915.394C915.279 373.293 915.166 373.316 915.06 373.36C914.953 373.404 914.857 373.468 914.776 373.55C914.694 373.631 914.63 373.727 914.586 373.833C914.542 373.939 914.52 374.053 914.52 374.168V378.58H901.399V374.168C901.399 374.053 901.376 373.94 901.332 373.833C901.289 373.727 901.224 373.631 901.143 373.55C901.062 373.468 900.965 373.404 900.859 373.36C900.753 373.316 900.639 373.293 900.524 373.293H879.532C879.417 373.293 879.303 373.316 879.197 373.36C879.091 373.404 878.994 373.468 878.913 373.55C878.832 373.631 878.767 373.727 878.723 373.833C878.679 373.94 878.657 374.053 878.657 374.168V374.168V378.58H865.536V374.168C865.536 374.053 865.514 373.94 865.47 373.833C865.426 373.727 865.361 373.631 865.28 373.55C865.199 373.468 865.102 373.404 864.996 373.36C864.89 373.316 864.776 373.293 864.662 373.293H843.669C843.554 373.293 843.44 373.316 843.334 373.36C843.228 373.404 843.131 373.468 843.05 373.55C842.969 373.631 842.904 373.727 842.86 373.833C842.816 373.94 842.794 374.053 842.794 374.168V374.168V378.58H829.673V374.168C829.673 374.053 829.651 373.94 829.607 373.833C829.563 373.727 829.498 373.631 829.417 373.55C829.336 373.468 829.24 373.404 829.133 373.36C829.027 373.316 828.914 373.293 828.799 373.293H807.806C807.691 373.293 807.577 373.316 807.471 373.36C807.365 373.404 807.268 373.468 807.187 373.55C807.106 373.631 807.042 373.727 806.998 373.833C806.954 373.939 806.931 374.053 806.931 374.168V378.58H793.811V374.168C793.811 374.053 793.788 373.94 793.744 373.833C793.7 373.727 793.636 373.631 793.554 373.55C793.473 373.468 793.377 373.404 793.271 373.36C793.164 373.316 793.051 373.293 792.936 373.293H771.943C771.828 373.293 771.714 373.316 771.608 373.36C771.502 373.404 771.406 373.468 771.324 373.55C771.243 373.631 771.179 373.727 771.135 373.833C771.091 373.94 771.068 374.053 771.068 374.168V374.168V378.58H757.948V374.168C757.948 374.053 757.925 373.94 757.881 373.833C757.837 373.727 757.773 373.631 757.691 373.55C757.61 373.468 757.514 373.404 757.408 373.36C757.301 373.316 757.188 373.293 757.073 373.293H736.08C735.965 373.293 735.851 373.316 735.745 373.36C735.639 373.404 735.543 373.468 735.461 373.55C735.38 373.631 735.316 373.727 735.272 373.833C735.228 373.94 735.205 374.053 735.205 374.168V374.168V378.58H722.085V374.168C722.085 374.053 722.062 373.94 722.018 373.833C721.974 373.727 721.91 373.631 721.829 373.55C721.747 373.468 721.651 373.404 721.545 373.36C721.439 373.316 721.325 373.293 721.21 373.293H556.766C556.651 373.293 556.537 373.316 556.431 373.36C556.325 373.404 556.228 373.468 556.147 373.55C556.066 373.631 556.001 373.727 555.957 373.833C555.913 373.94 555.891 374.053 555.891 374.168V374.168V378.58H542.77V374.168C542.77 374.053 542.748 373.94 542.704 373.833C542.66 373.727 542.595 373.631 542.514 373.55C542.433 373.468 542.336 373.404 542.23 373.36C542.124 373.316 542.01 373.293 541.896 373.293H520.903C520.788 373.293 520.674 373.316 520.568 373.36C520.462 373.404 520.365 373.468 520.284 373.55C520.203 373.631 520.139 373.727 520.095 373.833C520.051 373.94 520.028 374.053 520.028 374.168V374.168V378.58H506.907V374.168C506.907 374.053 506.885 373.94 506.841 373.833C506.797 373.727 506.732 373.631 506.651 373.55C506.57 373.468 506.474 373.404 506.368 373.36C506.261 373.316 506.148 373.293 506.033 373.293H485.04C484.925 373.293 484.811 373.316 484.705 373.36C484.599 373.404 484.503 373.468 484.421 373.55C484.34 373.631 484.276 373.727 484.232 373.833C484.188 373.94 484.165 374.053 484.165 374.168V374.168V378.58H471.045V374.168C471.045 374.053 471.022 373.94 470.978 373.833C470.934 373.727 470.87 373.631 470.788 373.55C470.707 373.468 470.611 373.404 470.505 373.36C470.398 373.316 470.285 373.293 470.17 373.293H449.177C449.062 373.293 448.948 373.316 448.842 373.36C448.736 373.404 448.64 373.468 448.558 373.55C448.477 373.631 448.413 373.727 448.369 373.833C448.325 373.94 448.302 374.053 448.302 374.168V374.168V378.58H435.182V374.168C435.182 374.053 435.159 373.94 435.115 373.833C435.071 373.727 435.007 373.631 434.925 373.55C434.844 373.468 434.748 373.404 434.642 373.36C434.536 373.316 434.422 373.293 434.307 373.293H413.314C413.199 373.293 413.085 373.316 412.979 373.36C412.873 373.404 412.777 373.468 412.696 373.55C412.614 373.631 412.55 373.727 412.506 373.833C412.462 373.94 412.439 374.053 412.439 374.168V374.168V378.58H399.319V374.168C399.319 374.053 399.296 373.94 399.252 373.833C399.208 373.727 399.144 373.631 399.063 373.55C398.981 373.468 398.885 373.404 398.779 373.36C398.673 373.316 398.559 373.293 398.444 373.293H377.451C377.219 373.293 376.997 373.386 376.833 373.55C376.669 373.714 376.576 373.936 376.576 374.168V378.58H363.456V374.168C363.456 374.053 363.433 373.94 363.389 373.833C363.345 373.727 363.281 373.631 363.2 373.55C363.118 373.468 363.022 373.404 362.916 373.36C362.81 373.316 362.696 373.293 362.581 373.293H341.588C341.356 373.293 341.134 373.386 340.97 373.55C340.806 373.714 340.714 373.936 340.714 374.168V378.58H300.477C294.909 378.58 289.57 380.791 285.633 384.728C281.696 388.665 279.484 394.005 279.484 399.573V409.065C279.484 414.633 281.696 419.972 285.633 423.909C289.57 427.846 294.909 430.058 300.477 430.058H998.491C1004.06 430.058 1009.4 427.846 1013.34 423.909C1017.27 419.972 1019.48 414.633 1019.48 409.065V399.573C1019.48 396.816 1018.94 394.086 1017.89 391.539C1016.83 388.992 1015.28 386.678 1013.34 384.728C1011.39 382.779 1009.07 381.233 1006.52 380.178C1003.98 379.123 1001.25 378.58 998.491 378.58V378.58Z" fill="#3F3D56"/>
<g id="Group4">
<path id="Path 37" d="M385.133 132L347 169.657L385.133 207.313L393.713 198.733L364.878 169.894L393.954 140.818L385.133 132Z" fill="white"/>
<path id="Path 38" d="M416.378 132L454.51 169.657L416.378 207.313L407.798 198.733L436.635 169.895L407.557 140.818L416.378 132Z" fill="white"/>
<path id="Path 78" d="M803.289 360.929H355.451C350.873 360.929 347.163 358.286 347.158 355.029V275.987C347.163 272.73 350.873 270.087 355.451 270.087H803.289C807.867 270.087 811.577 272.73 811.582 275.987V355.028C811.578 358.285 807.867 360.925 803.289 360.929ZM355.451 272.445C352.704 272.445 350.478 274.031 350.475 275.985V355.026C350.475 356.98 352.704 358.564 355.451 358.566H803.289C806.036 358.566 808.262 356.98 808.265 355.026V275.987C808.265 274.033 806.036 272.449 803.289 272.447L355.451 272.445Z" fill="#E6E6E6"/>
<path id="Ellipse 13" d="M401.568 335.51C412.634 335.51 421.604 326.54 421.604 315.474C421.604 304.408 412.634 295.438 401.568 295.438C390.502 295.438 381.532 304.408 381.532 315.474C381.532 326.54 390.502 335.51 401.568 335.51Z" fill="#E6E6E6"/>
<path id="Path 79" d="M458.078 299.45C457.015 299.449 455.996 299.869 455.244 300.62C454.492 301.37 454.068 302.388 454.067 303.451C454.065 304.513 454.486 305.533 455.236 306.285C455.987 307.037 457.005 307.461 458.068 307.462H646.939C648.001 307.462 649.02 307.04 649.772 306.289C650.523 305.537 650.945 304.518 650.945 303.456C650.945 302.394 650.523 301.375 649.772 300.623C649.02 299.872 648.001 299.45 646.939 299.45H458.078Z" fill="white"/>
<path id="Path 80" d="M458.078 323.487C457.552 323.486 457.031 323.589 456.545 323.79C456.058 323.991 455.616 324.285 455.244 324.657C454.492 325.407 454.068 326.425 454.067 327.488C454.065 328.55 454.486 329.57 455.236 330.322C455.987 331.074 457.005 331.498 458.068 331.499H539.344C540.406 331.5 541.426 331.08 542.178 330.329C542.93 329.579 543.354 328.561 543.355 327.498C543.357 326.436 542.936 325.416 542.185 324.664C541.435 323.912 540.417 323.488 539.354 323.487H458.078Z" fill="white"/>
</g>
<g id="undraw_my_code_snippets_lynx 1" opacity="0.75">
<path id="Vector_23" d="M965.797 269.592C969.414 269.938 972.013 268.464 973.771 265.49L972.557 260.011C972.557 258.229 971.981 256.492 970.913 255.055C969.844 253.617 968.339 252.553 966.615 252.016L965.97 251.815L965.797 269.592Z" fill="#E6E6E6"/>
<path id="Vector_24" d="M935.64 247.972L934.746 247.677L942.945 223.543C943.568 221.708 943.819 219.771 943.683 217.841C943.547 215.911 943.026 214.027 942.152 212.295C941.277 210.564 940.065 209.019 938.585 207.749C937.105 206.48 935.385 205.51 933.525 204.895H933.525L933.525 204.895L881.67 187.767C877.913 186.526 873.81 186.807 870.264 188.549C866.717 190.291 864.018 193.351 862.759 197.056L862.759 197.056L817.779 329.457C816.52 333.162 816.805 337.208 818.572 340.705C820.339 344.202 823.442 346.864 827.199 348.105H827.199L879.054 365.233C882.811 366.474 886.914 366.193 890.46 364.451C894.007 362.709 896.706 359.649 897.965 355.944L897.965 355.944L928.91 264.856L929.803 265.151L935.64 247.972Z" fill="#3F3D56"/>
<path id="Vector_25" d="M932.861 208.718L926.092 206.482C926.148 207.338 925.989 208.193 925.631 208.974C925.272 209.755 924.724 210.436 924.035 210.959C923.346 211.482 922.538 211.829 921.68 211.971C920.823 212.113 919.944 212.045 919.119 211.773L889.413 201.96C888.588 201.688 887.845 201.22 887.247 200.597C886.65 199.975 886.217 199.217 885.986 198.391C885.755 197.564 885.734 196.695 885.925 195.859C886.116 195.022 886.512 194.245 887.079 193.596L880.757 191.507C877.951 190.58 874.887 190.791 872.238 192.092C869.59 193.393 867.574 195.678 866.634 198.444L821.72 330.651C820.78 333.418 820.993 336.439 822.312 339.051C823.631 341.662 825.949 343.65 828.755 344.577H828.755L880.859 361.788C882.248 362.247 883.716 362.431 885.177 362.331C886.639 362.231 888.066 361.848 889.377 361.204C890.689 360.559 891.859 359.667 892.82 358.577C893.782 357.487 894.516 356.221 894.982 354.851V354.851L939.896 222.644C940.362 221.274 940.549 219.827 940.447 218.386C940.345 216.945 939.957 215.537 939.304 214.244C938.65 212.951 937.745 211.798 936.64 210.849C935.534 209.901 934.25 209.177 932.861 208.718L932.861 208.718Z" fill="white"/>
<path id="Vector_26" d="M919.831 253.072L864.225 234.705C863.952 234.614 863.727 234.421 863.598 234.167C863.47 233.913 863.449 233.619 863.54 233.349L868.161 219.748C868.253 219.479 868.449 219.257 868.707 219.131C868.964 219.004 869.262 218.983 869.536 219.073L925.141 237.441C925.414 237.531 925.639 237.725 925.768 237.979C925.896 238.233 925.917 238.527 925.826 238.796L921.205 252.397C921.114 252.666 920.917 252.888 920.66 253.015C920.402 253.142 920.104 253.162 919.831 253.072V253.072ZM869.398 219.479C869.234 219.425 869.055 219.438 868.9 219.514C868.746 219.59 868.628 219.723 868.573 219.884L863.952 233.485C863.897 233.647 863.91 233.823 863.987 233.976C864.064 234.128 864.199 234.244 864.363 234.299L919.969 252.666C920.132 252.72 920.311 252.708 920.466 252.632C920.621 252.556 920.738 252.422 920.793 252.261L925.414 238.66C925.469 238.498 925.456 238.322 925.379 238.17C925.302 238.017 925.167 237.901 925.003 237.847L869.398 219.479Z" fill="#3F3D56"/>
<path id="Vector_27" d="M901.548 306.887L845.943 288.519C845.67 288.429 845.445 288.235 845.316 287.981C845.188 287.727 845.167 287.433 845.258 287.164L853.811 261.988C853.903 261.719 854.099 261.496 854.357 261.37C854.615 261.243 854.913 261.223 855.186 261.312L910.791 279.68C911.064 279.77 911.29 279.964 911.418 280.218C911.546 280.472 911.567 280.766 911.476 281.035L902.923 306.211C902.831 306.481 902.635 306.703 902.377 306.829C902.12 306.956 901.821 306.976 901.548 306.887ZM855.048 261.719C854.884 261.665 854.705 261.677 854.55 261.753C854.396 261.829 854.278 261.962 854.223 262.124L845.67 287.3C845.615 287.461 845.628 287.638 845.705 287.79C845.782 287.943 845.917 288.059 846.081 288.113L901.686 306.48C901.85 306.534 902.029 306.522 902.184 306.446C902.338 306.37 902.456 306.237 902.511 306.075L911.064 280.899C911.119 280.738 911.106 280.561 911.029 280.409C910.952 280.256 910.817 280.14 910.653 280.086L855.048 261.719Z" fill="#3F3D56"/>
<path id="Vector_28" d="M912.244 274.056L887.53 265.892C887.257 265.802 887.032 265.608 886.904 265.354C886.775 265.1 886.754 264.806 886.845 264.537L891.466 250.936C891.558 250.667 891.754 250.445 892.012 250.318C892.27 250.192 892.568 250.171 892.841 250.261L917.554 258.424C917.827 258.515 918.053 258.708 918.181 258.962C918.309 259.216 918.33 259.51 918.239 259.78L913.619 273.381C913.527 273.65 913.331 273.872 913.073 273.998C912.815 274.125 912.517 274.146 912.244 274.056V274.056ZM892.703 250.667C892.539 250.613 892.36 250.625 892.205 250.701C892.051 250.777 891.933 250.911 891.878 251.072L887.257 264.673C887.203 264.835 887.215 265.011 887.292 265.163C887.369 265.316 887.504 265.432 887.668 265.486L912.382 273.65C912.546 273.704 912.725 273.691 912.879 273.615C913.034 273.539 913.152 273.406 913.207 273.245L917.827 259.644C917.882 259.482 917.869 259.306 917.792 259.153C917.715 259.001 917.58 258.885 917.416 258.83L892.703 250.667Z" fill="#E6E6E6"/>
<path id="Vector_29" d="M859.48 329.58L834.767 321.417C834.494 321.327 834.268 321.133 834.14 320.879C834.012 320.625 833.991 320.331 834.082 320.062L842.704 294.682C842.796 294.413 842.992 294.191 843.249 294.064C843.507 293.938 843.805 293.917 844.078 294.007L868.792 302.17C869.065 302.261 869.29 302.454 869.419 302.709C869.547 302.963 869.568 303.257 869.477 303.526L860.855 328.905C860.763 329.174 860.567 329.396 860.309 329.523C860.051 329.65 859.753 329.67 859.48 329.58V329.58ZM843.94 294.413C843.777 294.359 843.598 294.372 843.443 294.448C843.288 294.524 843.171 294.657 843.116 294.818L834.494 320.198C834.439 320.359 834.451 320.536 834.528 320.688C834.606 320.841 834.741 320.957 834.904 321.011L859.618 329.174C859.782 329.228 859.961 329.216 860.115 329.14C860.27 329.064 860.388 328.931 860.443 328.769L869.065 303.39C869.12 303.228 869.107 303.052 869.03 302.899C868.953 302.747 868.818 302.631 868.654 302.577L843.94 294.413Z" fill="#E6E6E6"/>
<path id="Vector_30" d="M889.96 339.648L865.246 331.485C864.974 331.395 864.748 331.201 864.62 330.947C864.491 330.693 864.471 330.399 864.562 330.13L873.184 304.75C873.275 304.481 873.472 304.259 873.729 304.133C873.987 304.006 874.285 303.985 874.558 304.075L899.272 312.239C899.545 312.329 899.77 312.523 899.899 312.777C900.027 313.031 900.048 313.325 899.957 313.594L891.335 338.973C891.243 339.242 891.047 339.465 890.789 339.591C890.531 339.718 890.233 339.738 889.96 339.648V339.648ZM874.42 304.481C874.257 304.427 874.078 304.44 873.923 304.516C873.768 304.592 873.651 304.725 873.596 304.886L864.974 330.266C864.919 330.427 864.931 330.604 865.008 330.756C865.085 330.909 865.221 331.025 865.384 331.079L890.098 339.242C890.262 339.296 890.441 339.284 890.595 339.208C890.75 339.132 890.868 338.999 890.923 338.837L899.545 313.458C899.6 313.296 899.587 313.12 899.51 312.968C899.433 312.815 899.298 312.699 899.134 312.645L874.42 304.481Z" fill="#E6E6E6"/>
<path id="Vector_31" d="M871.008 273.391C870.917 273.36 870.82 273.347 870.723 273.353C870.626 273.359 870.531 273.384 870.444 273.426C870.357 273.468 870.279 273.526 870.215 273.598C870.151 273.67 870.102 273.753 870.07 273.844C870.039 273.934 870.026 274.03 870.032 274.125C870.039 274.221 870.064 274.314 870.107 274.4C870.149 274.486 870.209 274.562 870.282 274.625C870.355 274.688 870.44 274.737 870.531 274.767L870.54 274.77L903.497 285.656C903.682 285.719 903.885 285.706 904.06 285.621C904.236 285.536 904.37 285.386 904.433 285.203C904.496 285.021 904.483 284.821 904.397 284.648C904.311 284.475 904.158 284.343 903.973 284.28L903.966 284.278L871.008 273.391Z" fill="#E6E6E6"/>
<path id="Vector_32" d="M869.603 277.527C869.511 277.496 869.414 277.483 869.318 277.489C869.221 277.495 869.126 277.52 869.039 277.562C868.952 277.604 868.874 277.662 868.81 277.734C868.746 277.806 868.697 277.889 868.665 277.98C868.634 278.07 868.621 278.166 868.627 278.261C868.634 278.357 868.659 278.45 868.702 278.536C868.744 278.622 868.804 278.698 868.877 278.761C868.95 278.824 869.034 278.873 869.126 278.903L869.135 278.906L883.316 283.591C883.501 283.65 883.703 283.636 883.877 283.55C884.051 283.463 884.184 283.313 884.246 283.131C884.307 282.949 884.294 282.75 884.207 282.578C884.121 282.405 883.969 282.274 883.785 282.212L869.603 277.527Z" fill="#E6E6E6"/>
<path id="Vector_33" d="M854.452 279.877C853.92 279.701 853.382 279.868 853.253 280.248C853.124 280.628 853.452 281.08 853.983 281.256L899.455 296.276C899.986 296.451 900.524 296.285 900.653 295.905C900.782 295.525 900.455 295.073 899.923 294.897L854.452 279.877Z" fill="#E6E6E6"/>
<path id="Vector_34" d="M853.047 284.013C852.515 283.838 851.977 284.004 851.848 284.384C851.719 284.764 852.047 285.216 852.578 285.392L898.049 300.412C898.581 300.587 899.119 300.421 899.248 300.041C899.377 299.661 899.05 299.209 898.518 299.033L853.047 284.013Z" fill="#E6E6E6"/>
<path id="Vector_35" d="M886.322 229.664C886.137 229.602 885.934 229.616 885.759 229.702C885.584 229.787 885.451 229.938 885.389 230.121C885.326 230.303 885.34 230.503 885.426 230.675C885.513 230.848 885.666 230.98 885.851 231.041L885.853 231.042L918.811 241.929C918.996 241.989 919.197 241.974 919.372 241.888C919.546 241.802 919.678 241.651 919.74 241.469C919.802 241.287 919.788 241.088 919.702 240.916C919.615 240.744 919.464 240.612 919.279 240.55L886.322 229.664Z" fill="#E6E6E6"/>
<path id="Vector_36" d="M884.917 233.8C884.825 233.769 884.728 233.756 884.631 233.763C884.535 233.769 884.44 233.794 884.353 233.837C884.266 233.879 884.189 233.938 884.125 234.01C884.061 234.082 884.012 234.165 883.981 234.256C883.95 234.346 883.938 234.442 883.944 234.537C883.951 234.633 883.977 234.726 884.02 234.812C884.063 234.897 884.123 234.973 884.196 235.036C884.269 235.099 884.354 235.147 884.445 235.177L884.448 235.178L898.63 239.863C898.815 239.923 899.017 239.908 899.191 239.822C899.365 239.736 899.497 239.585 899.559 239.403C899.621 239.221 899.607 239.022 899.521 238.85C899.435 238.678 899.283 238.546 899.098 238.484L884.917 233.8Z" fill="#E6E6E6"/>
<path id="Vector_37" d="M881.741 263.983L858.558 256.325L867.179 248.809C867.334 248.674 867.521 248.582 867.724 248.542C867.926 248.501 868.135 248.514 868.331 248.579C868.526 248.643 868.701 248.757 868.838 248.91C868.974 249.062 869.068 249.247 869.109 249.447L870.087 254.197L876.35 248.738C876.543 248.569 876.778 248.454 877.031 248.403C877.284 248.352 877.546 248.368 877.791 248.449C878.036 248.53 878.255 248.673 878.426 248.864C878.597 249.054 878.714 249.286 878.766 249.536L881.741 263.983ZM859.409 256.155L881.166 263.341L878.34 249.621C878.304 249.445 878.221 249.282 878.101 249.147C877.98 249.013 877.826 248.912 877.653 248.855C877.481 248.798 877.296 248.787 877.118 248.823C876.939 248.858 876.774 248.94 876.637 249.059L869.811 255.009L868.683 249.532C868.657 249.406 868.598 249.289 868.512 249.193C868.426 249.097 868.316 249.025 868.193 248.985C868.069 248.944 867.937 248.936 867.81 248.961C867.683 248.987 867.564 249.045 867.467 249.13L859.409 256.155Z" fill="#E6E6E6"/>
<path id="Vector_38" d="M911.397 273.779L888.214 266.121L896.835 258.605C896.99 258.47 897.178 258.378 897.38 258.338C897.582 258.297 897.791 258.31 897.987 258.374C898.182 258.439 898.357 258.553 898.494 258.706C898.63 258.858 898.724 259.043 898.765 259.242L899.743 263.993L906.006 258.534C906.199 258.365 906.434 258.25 906.687 258.199C906.94 258.148 907.202 258.164 907.447 258.245C907.692 258.326 907.911 258.469 908.082 258.66C908.253 258.85 908.37 259.082 908.422 259.332L911.397 273.779ZM889.065 265.951L910.822 273.137L907.996 259.417C907.96 259.241 907.877 259.078 907.757 258.943C907.636 258.809 907.482 258.708 907.309 258.651C907.137 258.594 906.952 258.583 906.774 258.619C906.595 258.654 906.43 258.736 906.293 258.855L899.467 264.805L898.339 259.328C898.313 259.202 898.254 259.085 898.168 258.989C898.082 258.893 897.972 258.821 897.849 258.781C897.726 258.74 897.594 258.732 897.466 258.757C897.339 258.783 897.22 258.841 897.123 258.926L889.065 265.951Z" fill="#E6E6E6"/>
<path id="Vector_39" d="M881.764 263.988L857.05 255.824C856.777 255.734 856.552 255.54 856.424 255.286C856.295 255.032 856.274 254.738 856.365 254.469L860.986 240.868C861.078 240.599 861.274 240.377 861.532 240.25C861.789 240.124 862.088 240.103 862.361 240.193L887.074 248.356C887.347 248.447 887.573 248.64 887.701 248.894C887.829 249.148 887.85 249.442 887.759 249.712L883.138 263.312C883.047 263.582 882.85 263.804 882.593 263.93C882.335 264.057 882.037 264.078 881.764 263.988V263.988ZM862.223 240.599C862.059 240.545 861.88 240.557 861.725 240.633C861.571 240.709 861.453 240.843 861.398 241.004L856.777 254.605C856.723 254.767 856.735 254.943 856.812 255.095C856.889 255.248 857.024 255.364 857.188 255.418L881.902 263.582C882.066 263.635 882.245 263.623 882.399 263.547C882.554 263.471 882.672 263.338 882.727 263.176L887.347 249.575C887.402 249.414 887.389 249.238 887.312 249.085C887.235 248.933 887.1 248.816 886.936 248.762L862.223 240.599Z" fill="#E6E6E6"/>
<path id="Vector_40" d="M847.566 300.98C847.381 300.918 847.179 300.932 847.004 301.017C846.829 301.102 846.695 301.252 846.632 301.434C846.569 301.617 846.582 301.816 846.668 301.989C846.754 302.162 846.906 302.294 847.091 302.357L847.098 302.359L861.28 307.043C861.372 307.074 861.469 307.087 861.566 307.081C861.663 307.074 861.757 307.049 861.844 307.007C861.932 306.964 862.009 306.905 862.073 306.833C862.137 306.761 862.186 306.677 862.217 306.586C862.247 306.495 862.26 306.399 862.253 306.304C862.246 306.208 862.22 306.115 862.177 306.029C862.133 305.944 862.073 305.867 861.999 305.805C861.926 305.742 861.84 305.695 861.748 305.665L847.566 300.98Z" fill="#E6E6E6"/>
<path id="Vector_41" d="M846.187 305.042C846.001 304.982 845.8 304.996 845.625 305.082C845.451 305.168 845.318 305.319 845.256 305.501C845.195 305.683 845.208 305.883 845.295 306.055C845.381 306.227 845.534 306.359 845.718 306.42L859.9 311.105C860.085 311.165 860.287 311.151 860.461 311.064C860.635 310.978 860.768 310.828 860.83 310.645C860.892 310.463 860.878 310.264 860.792 310.092C860.705 309.92 860.553 309.788 860.368 309.726L846.187 305.042Z" fill="#E6E6E6"/>
<path id="Vector_42" d="M848.901 320.265C848.031 319.978 847.267 319.442 846.705 318.726C846.143 318.01 845.81 317.146 845.746 316.244C845.682 315.341 845.891 314.439 846.347 313.654C846.803 312.868 847.485 312.234 848.306 311.83C849.128 311.426 850.052 311.272 850.963 311.387C851.873 311.501 852.729 311.879 853.421 312.473C854.114 313.067 854.612 313.851 854.853 314.724C855.094 315.597 855.068 316.521 854.776 317.38V317.38C854.384 318.53 853.545 319.479 852.444 320.02C851.342 320.561 850.069 320.649 848.901 320.265V320.265ZM851.712 311.993C850.923 311.732 850.073 311.708 849.271 311.924C848.468 312.139 847.748 312.585 847.202 313.204C846.656 313.823 846.308 314.587 846.203 315.401C846.098 316.215 846.239 317.041 846.61 317.775C846.981 318.51 847.565 319.119 848.287 319.526C849.009 319.934 849.838 320.121 850.667 320.064C851.497 320.007 852.292 319.708 852.95 319.206C853.608 318.704 854.1 318.021 854.364 317.243V317.243C854.717 316.2 854.636 315.062 854.139 314.077C853.642 313.093 852.769 312.344 851.712 311.993H851.712Z" fill="#E6E6E6"/>
<path id="Vector_43" d="M886.472 332.675C886.564 332.706 886.661 332.719 886.758 332.713C886.854 332.707 886.949 332.682 887.036 332.64C887.123 332.598 887.201 332.54 887.265 332.468C887.329 332.396 887.378 332.313 887.409 332.222C887.44 332.132 887.453 332.036 887.447 331.941C887.441 331.845 887.415 331.752 887.373 331.666C887.33 331.581 887.27 331.504 887.197 331.441C887.124 331.378 887.04 331.33 886.948 331.299L886.941 331.297L872.759 326.612C872.574 326.55 872.372 326.564 872.197 326.649C872.021 326.734 871.888 326.884 871.825 327.066C871.762 327.249 871.775 327.448 871.861 327.621C871.947 327.794 872.099 327.926 872.283 327.989L872.291 327.991L886.472 332.675Z" fill="#E6E6E6"/>
<path id="Vector_44" d="M887.852 328.614C887.944 328.645 888.041 328.657 888.138 328.651C888.235 328.645 888.33 328.62 888.417 328.577C888.504 328.535 888.582 328.476 888.645 328.404C888.709 328.331 888.758 328.247 888.789 328.157C888.82 328.066 888.832 327.97 888.825 327.874C888.818 327.779 888.792 327.686 888.749 327.6C888.705 327.514 888.645 327.438 888.572 327.375C888.498 327.313 888.413 327.265 888.32 327.235L874.139 322.551C873.954 322.489 873.751 322.502 873.576 322.587C873.401 322.672 873.267 322.823 873.204 323.005C873.141 323.187 873.154 323.387 873.24 323.56C873.326 323.732 873.478 323.865 873.663 323.927L873.67 323.929L887.852 328.614Z" fill="#E6E6E6"/>
<path id="Vector_45" d="M885.137 313.391C886.007 313.678 886.772 314.214 887.334 314.929C887.895 315.645 888.229 316.509 888.293 317.412C888.356 318.315 888.147 319.216 887.691 320.002C887.236 320.787 886.554 321.422 885.732 321.826C884.911 322.229 883.986 322.383 883.076 322.269C882.165 322.154 881.31 321.776 880.617 321.182C879.925 320.588 879.426 319.805 879.185 318.932C878.944 318.058 878.971 317.134 879.263 316.276V316.276C879.655 315.126 880.493 314.176 881.595 313.636C882.696 313.095 883.97 313.006 885.137 313.391ZM882.327 321.663C883.116 321.923 883.965 321.947 884.768 321.732C885.571 321.516 886.291 321.071 886.837 320.452C887.383 319.833 887.73 319.068 887.836 318.255C887.941 317.441 887.799 316.614 887.428 315.88C887.057 315.146 886.474 314.537 885.752 314.129C885.029 313.722 884.201 313.535 883.371 313.592C882.541 313.649 881.747 313.947 881.089 314.449C880.431 314.951 879.939 315.634 879.674 316.412C879.321 317.455 879.402 318.594 879.9 319.578C880.397 320.562 881.27 321.312 882.327 321.663V321.663Z" fill="#E6E6E6"/>
<path id="Path 37_2" d="M874.834 224.93L869.828 227.61L872.608 232.512L873.737 231.898L871.646 228.154L875.474 226.075L874.834 224.93Z" fill="#0D6EFD"/>
<path id="Path 38_2" d="M878.024 225.84L880.804 230.743L875.798 233.422L875.175 232.308L878.972 230.246L876.862 226.471L878.024 225.84Z" fill="#0D6EFD"/>
<path id="Path 37_3" d="M860.46 268.843L855.454 271.523L858.234 276.425L859.364 275.811L857.272 272.067L861.1 269.988L860.46 268.843Z" fill="#0D6EFD"/>
<path id="Path 38_3" d="M863.65 269.753L866.43 274.656L861.424 277.335L860.802 276.221L864.598 274.159L862.489 270.384L863.65 269.753Z" fill="#0D6EFD"/>
</g>
<g id="undraw_static_assets_rpm6 1" clip-path="url(#clip1)">
<path id="Vector_46" opacity="0.1" d="M707.439 223.865C729.425 223.865 747.249 219.934 747.249 215.085C747.249 210.235 729.425 206.304 707.439 206.304C685.453 206.304 667.63 210.235 667.63 215.085C667.63 219.934 685.453 223.865 707.439 223.865Z" fill="#0D6EFD"/>
<g id="Group" opacity="0.5">
<path id="Vector_47" opacity="0.5" d="M673.341 112.135C672.804 112.308 672.147 112.759 671.823 113.992C671.188 116.41 672.663 118.053 672.177 120.573C672.042 121.242 671.785 121.871 671.423 122.42C670.83 123.333 670.186 123.764 669.561 124.404C668.768 125.22 668.199 126.279 667.924 127.454C667.622 128.75 667.597 130.109 667.851 131.418C668.073 132.513 668.451 133.31 668.783 134.197C669.195 135.328 669.517 136.499 669.745 137.696C669.871 138.279 669.941 138.875 669.956 139.474C669.947 140.271 669.884 141.065 669.768 141.851L668.866 148.994C668.729 149.928 668.646 150.871 668.619 151.818C668.631 152.766 668.727 153.711 668.907 154.637C669.224 156.526 669.564 158.484 670.29 159.485C671.015 160.485 672.25 160.126 673.009 158.102C673.731 156.165 673.748 153.581 674.384 151.512C675.388 148.253 677.383 147.814 678.49 144.705C679.553 141.712 679.227 138.062 679.765 134.659C680.142 132.22 680.973 129.997 681.461 127.588C682.161 124.119 682.091 120.518 681.532 117.85C681.107 115.659 680.186 113.63 678.861 111.964C678.392 111.376 677.889 110.852 677.3 110.799C676.673 110.743 676.125 111.639 675.505 111.908C674.789 112.227 674.07 111.9 673.341 112.135Z" fill="#0D6EFD"/>
<path id="Vector_48" opacity="0.5" d="M676.737 110.981C676.737 110.981 675.674 141.832 671.207 160.023" stroke="#535461" stroke-width="2" stroke-miterlimit="10"/>
<path id="Vector_49" opacity="0.5" d="M671.796 114.138C671.796 114.138 676.571 119.071 675.665 128.458" stroke="#535461" stroke-width="2" stroke-miterlimit="10"/>
<path id="Vector_50" opacity="0.5" d="M667.79 128.176C667.79 128.176 675.627 129.965 675.045 135.285" stroke="#535461" stroke-width="2" stroke-miterlimit="10"/>
<path id="Vector_51" opacity="0.5" d="M681.545 117.786C681.545 117.786 678.373 120.937 675.548 129.86" stroke="#535461" stroke-width="2" stroke-miterlimit="10"/>
<path id="Vector_52" opacity="0.5" d="M678.447 144.756C678.447 144.756 676.283 146.68 674.546 139.945" stroke="#535461" stroke-width="2" stroke-miterlimit="10"/>
<path id="Vector_53" opacity="0.5" d="M669.109 148.691C669.109 148.691 673.522 148.037 673.928 144.901" stroke="#535461" stroke-width="2" stroke-miterlimit="10"/>
</g>
<path id="Vector_54" d="M684.009 91.4428C682.916 91.6266 681.602 92.2015 681.061 93.9734C680.001 97.4488 683.223 100.08 682.481 103.711C682.26 104.711 681.794 105.619 681.137 106.33C680.006 107.593 678.714 108.144 677.49 109.001C676.266 109.859 674.995 111.207 674.42 113.276C673.868 115.266 674.107 117.463 674.682 119.105C675.256 120.746 676.125 121.971 676.901 123.322C677.844 124.985 678.632 126.754 679.253 128.601C679.566 129.443 679.777 130.33 679.878 131.237C679.978 132.348 679.852 133.543 679.726 134.712L678.605 145.13C678.456 146.515 678.306 147.921 678.39 149.255C678.486 150.792 678.888 152.134 679.283 153.444C680.135 156.27 681.046 159.215 682.653 160.771C684.259 162.327 686.779 161.994 688.137 159.1C689.429 156.345 689.192 152.542 690.294 149.582C692.031 144.916 696.114 144.538 698.078 140.109C699.962 135.86 698.909 130.425 699.666 125.487C700.209 121.95 701.678 118.786 702.431 115.305C703.518 110.288 702.996 104.977 701.561 100.984C700.126 96.9914 697.856 94.1444 695.421 91.9579C694.389 91.0281 693.294 90.1881 692.068 90.0342C690.765 89.8696 689.723 91.1136 688.471 91.4278C687.013 91.7719 685.491 91.1927 684.009 91.4428Z" fill="#0D6EFD"/>
<path id="Vector_55" d="M690.918 90.1988C690.918 90.1988 691.946 135.488 684.597 161.678" stroke="#535461" stroke-width="2" stroke-miterlimit="10"/>
<path id="Vector_56" d="M681.02 94.1914C681.02 94.1914 691.417 102.1 690.526 115.813" stroke="#535461" stroke-width="2" stroke-miterlimit="10"/>
<path id="Vector_57" d="M674.196 114.319C674.196 114.319 690.605 118.008 689.957 125.763" stroke="#535461" stroke-width="2" stroke-miterlimit="10"/>
<path id="Vector_58" d="M701.58 100.869C701.58 100.869 695.344 105.081 690.432 117.842" stroke="#535461" stroke-width="2" stroke-miterlimit="10"/>
<path id="Vector_59" d="M697.98 140.169C697.98 140.169 693.705 142.734 689.405 132.558" stroke="#535461" stroke-width="2" stroke-miterlimit="10"/>
<path id="Vector_60" d="M679.065 144.702C679.065 144.702 688.13 144.333 688.646 139.769" stroke="#535461" stroke-width="2" stroke-miterlimit="10"/>
<path id="Vector_61" d="M566.666 213.668C566.666 213.668 568.245 216.019 565.938 219.545C563.63 223.072 561.724 226.069 562.498 228.275C562.498 228.275 565.979 221.706 568.812 221.614C571.644 221.523 569.784 217.618 566.666 213.668Z" fill="#0D6EFD"/>
<path id="Vector_62" opacity="0.1" d="M566.666 213.668C566.807 213.893 566.919 214.141 566.998 214.403C569.763 218.088 571.234 221.527 568.578 221.614C566.103 221.696 563.135 226.716 562.423 227.986C562.446 228.084 562.475 228.18 562.508 228.275C562.508 228.275 565.988 221.706 568.821 221.614C571.654 221.523 569.784 217.618 566.666 213.668Z" fill="black"/>
<path id="Vector_63" d="M569.601 216.654C569.601 217.479 569.52 218.15 569.413 218.15C569.305 218.15 569.224 217.481 569.224 216.654C569.224 215.826 569.326 216.226 569.426 216.226C569.526 216.226 569.601 215.829 569.601 216.654Z" fill="#FFD037"/>
<path id="Vector_64" d="M570.608 217.637C569.97 218.032 569.414 218.278 569.367 218.169C569.32 218.06 569.797 217.667 570.435 217.273C571.074 216.88 570.821 217.167 570.87 217.273C570.919 217.38 571.245 217.241 570.608 217.637Z" fill="#FFD037"/>
<path id="Vector_65" d="M558.334 213.668C558.334 213.668 556.756 216.019 559.063 219.545C561.37 223.072 563.272 226.067 562.502 228.272C562.502 228.272 559.021 221.704 556.189 221.612C553.356 221.52 555.213 217.618 558.334 213.668Z" fill="#0D6EFD"/>
<path id="Vector_66" opacity="0.1" d="M558.334 213.668C558.196 213.894 558.088 214.142 558.012 214.403C555.247 218.088 553.776 221.527 556.432 221.614C558.906 221.696 561.875 226.716 562.587 227.986C562.563 228.084 562.535 228.18 562.502 228.275C562.502 228.275 559.021 221.706 556.189 221.614C553.356 221.523 555.213 217.618 558.334 213.668Z" fill="black"/>
<path id="Vector_67" d="M555.396 216.654C555.396 217.479 555.477 218.15 555.584 218.15C555.691 218.15 555.772 217.481 555.772 216.654C555.772 215.826 555.671 216.226 555.571 216.226C555.471 216.226 555.396 215.829 555.396 216.654Z" fill="#FFD037"/>
<path id="Vector_68" d="M554.388 217.637C555.026 218.032 555.582 218.278 555.629 218.169C555.676 218.06 555.2 217.667 554.561 217.273C553.923 216.88 554.175 217.167 554.126 217.273C554.077 217.38 553.751 217.241 554.388 217.637Z" fill="#FFD037"/>
<path id="Vector_69" d="M555.899 227.967C555.899 227.967 560.312 227.813 561.641 226.738C562.971 225.663 568.422 224.387 568.759 226.097C569.096 227.807 575.391 234.67 570.409 234.715C565.427 234.759 558.833 233.834 557.505 232.917C556.177 232 555.899 227.967 555.899 227.967Z" fill="#A8A8A8"/>
<path id="Vector_70" opacity="0.2" d="M570.497 234.12C565.516 234.165 558.922 233.24 557.594 232.323C556.582 231.624 556.179 229.117 556.045 227.96H555.899C555.899 227.96 556.177 232 557.505 232.917C558.833 233.834 565.427 234.762 570.409 234.714C571.848 234.702 572.343 234.12 572.317 233.261C572.117 233.787 571.569 234.112 570.497 234.12Z" fill="black"/>
<path id="Vector_71" d="M739.025 212.695C739.37 212.376 739.622 211.945 739.747 211.46C739.841 210.968 739.656 210.38 739.242 210.201C738.779 210 738.283 210.363 737.908 210.733C737.534 211.103 737.102 211.522 736.611 211.443C736.863 211.183 737.052 210.853 737.159 210.485C737.266 210.118 737.287 209.725 737.221 209.346C737.2 209.188 737.141 209.041 737.051 208.918C736.793 208.606 736.328 208.741 736.019 208.987C735.04 209.769 734.767 211.278 734.761 212.637C734.663 212.148 734.746 211.637 734.742 211.141C734.738 210.645 734.618 210.072 734.245 209.812C734.014 209.671 733.754 209.601 733.492 209.609C733.051 209.589 732.561 209.641 732.26 210.006C731.883 210.459 731.983 211.222 732.309 211.716C732.635 212.21 733.128 212.528 733.584 212.875C733.949 213.121 734.261 213.458 734.496 213.86C734.523 213.916 734.546 213.974 734.563 214.035H737.323C737.941 213.678 738.514 213.227 739.025 212.695Z" fill="#0D6EFD"/>
<path id="Vector_72" opacity="0.1" d="M581.636 192.663C587.629 201.311 585.302 213.946 581.493 224.062C580.218 227.45 578.775 231.034 579.314 234.665C579.971 239.107 583.458 242.36 587.134 244.07C593.82 247.208 601.825 246.46 607.967 242.123C613.277 238.374 617.08 232.278 622.479 228.7C631.52 222.715 643.021 224.974 652.834 229.098C659.776 232.015 667.366 235.811 674.266 232.761C679.119 230.624 682.476 225.393 684.305 219.858C685.188 217.184 685.828 214.3 687.507 212.163C688.509 210.904 689.816 210.008 691.157 209.256C703.399 202.372 718.844 206.05 730.725 198.424C738.75 193.268 743.888 183.541 746.169 173.399C748.45 163.257 748.179 152.621 747.601 142.178C747.19 134.755 746.454 126.832 742.274 121.101C737.854 115.042 730.265 112.787 723.407 113.939C716.55 115.091 710.33 119.216 704.868 124.051C698.033 130.093 691.695 137.619 683.303 140.069C677.588 141.736 671.576 140.823 665.681 140.509C655.826 139.981 645.97 141.15 636.17 142.432C626.789 143.664 617.336 145.019 608.402 148.481C602.078 150.933 597.007 155.381 591.035 158.489C587.142 160.515 582.896 161.075 579.212 163.655C574.671 166.833 570.511 172.362 571.678 178.83C572.775 184.988 578.453 188.074 581.636 192.663Z" fill="#0D6EFD"/>
<path id="Vector_73" opacity="0.1" d="M658.034 192.659C702.521 192.659 738.584 188.728 738.584 183.879C738.584 179.029 702.521 175.098 658.034 175.098C613.547 175.098 577.483 179.029 577.483 183.879C577.483 188.728 613.547 192.659 658.034 192.659Z" fill="#0D6EFD"/>
<path id="Vector_74" opacity="0.1" d="M596.126 243.315C618.112 243.315 635.935 239.384 635.935 234.535C635.935 229.686 618.112 225.755 596.126 225.755C574.14 225.755 556.317 229.686 556.317 234.535C556.317 239.384 574.14 243.315 596.126 243.315Z" fill="#0D6EFD"/>
<path id="Vector_75" d="M636.82 181.141L636.189 182.182C636.189 182.182 636.877 183.223 636.943 183.353C637.009 183.483 638.949 183.289 638.949 183.289L639.12 182.509L638.834 181.598L636.82 181.141Z" fill="#E6E6F0"/>
<path id="Vector_76" d="M615.607 180.555L614.345 180.814L615.147 182.573L616.008 183.092L616.81 183.742L617.04 183.028L616.466 181.66L615.607 180.555Z" fill="#FDC2CC"/>
<path id="Vector_77" d="M636.248 163.638C636.248 163.638 642.957 165.459 644.217 167.485C644.217 167.485 645.364 168.592 644.217 170.608C643.07 172.623 641.465 177.18 641.465 177.18C641.465 177.18 640.318 181.605 639.86 181.929C639.402 182.254 636.764 182.515 636.534 181.288C636.534 181.288 638.024 178.621 638.024 177.383C638.024 176.146 640.489 170.291 640.489 170.291C640.489 170.291 634.871 169.575 633.093 170.031C631.315 170.486 633.897 162.922 636.248 163.638Z" fill="#565171"/>
<path id="Vector_78" opacity="0.1" d="M636.248 163.638C636.248 163.638 642.957 165.459 644.217 167.485C644.217 167.485 645.364 168.592 644.217 170.608C643.07 172.623 641.465 177.18 641.465 177.18C641.465 177.18 640.318 181.605 639.86 181.929C639.402 182.254 636.764 182.515 636.534 181.288C636.534 181.288 638.024 178.621 638.024 177.383C638.024 176.146 640.489 170.291 640.489 170.291C640.489 170.291 634.871 169.575 633.093 170.031C631.315 170.486 633.897 162.922 636.248 163.638Z" fill="black"/>
<path id="Vector_79" d="M634.871 165.395C634.858 165.773 634.822 166.198 634.771 166.656C634.404 169.969 633.208 174.895 633.208 174.895C633.208 174.895 632.004 177.823 631.66 179.711C631.315 181.598 628.964 182.062 628.964 182.062C628.964 182.062 622.542 182.917 621.223 182.583C619.905 182.25 617.833 183.56 616.808 183.364C615.784 183.167 615.145 180.435 615.145 180.435C616.924 180.447 618.683 180.026 620.306 179.2C622.943 177.834 626.729 178.484 626.729 178.484C627.011 178.391 627.274 178.233 627.5 178.021C627.727 177.808 627.913 177.546 628.047 177.248C628.448 176.272 628.448 170.351 628.333 169.96C627.58 167.395 627.642 165.749 627.859 164.79C627.931 164.37 628.094 163.978 628.333 163.648L634.871 165.395Z" fill="#565171"/>
<path id="Vector_80" opacity="0.1" d="M634.871 165.395C634.858 165.773 634.822 166.198 634.771 166.656C634.195 166.707 632.579 166.756 631.381 165.916C630.251 165.129 628.606 164.862 627.866 164.779C627.939 164.36 628.102 163.968 628.341 163.638L634.871 165.395Z" fill="black"/>
<path id="Vector_81" d="M635.664 164.58C635.396 165.435 634.986 166.438 634.986 166.438C634.986 166.438 632.865 166.762 631.373 165.722C629.882 164.681 627.474 164.55 627.474 164.55C627.864 164.279 628.128 163.454 628.292 162.731C628.383 162.323 628.455 161.909 628.507 161.492C628.507 161.492 635.558 163.118 635.852 163.379C635.961 163.482 635.845 163.999 635.664 164.58Z" fill="#E6E6F0"/>
<path id="Vector_82" d="M648.23 137.155L639.677 143.014L638.828 143.595V140.733L639.418 140.413L646.626 136.503C646.626 136.503 646.97 129.411 647.888 130.519C648.805 131.626 648.23 137.155 648.23 137.155Z" fill="#FDC2CC"/>
<path id="Vector_83" opacity="0.1" d="M639.677 143.014L638.828 143.595V140.733L639.418 140.413C639.457 141.285 639.543 142.154 639.677 143.014Z" fill="black"/>
<path id="Vector_84" d="M633.095 144.061L639.229 140.028C639.229 140.028 639.344 143.933 640.032 144.516C640.032 144.516 637.51 145.371 636.534 147.184L633.095 144.061Z" fill="#B45181"/>
<path id="Vector_85" opacity="0.1" d="M633.095 144.061L639.229 140.028C639.229 140.028 639.344 143.933 640.032 144.516C640.032 144.516 637.51 145.371 636.534 147.184L633.095 144.061Z" fill="black"/>
<path id="Vector_86" d="M648.176 147.5C648.176 147.5 645.258 148.943 643.326 149.473C642.891 149.622 642.436 149.681 641.983 149.648C640.664 149.388 642.328 147.511 642.328 147.511L643.021 147.389L646.742 146.731C646.742 146.731 647.144 140.225 647.831 140.746C648.519 141.268 648.176 147.5 648.176 147.5Z" fill="#FDC2CC"/>
<path id="Vector_87" d="M635.846 141.644C635.846 141.644 633.381 143.726 634.298 146.329C635.215 148.932 629.539 144.767 629.539 144.767C629.539 144.767 631.373 141.644 631.774 139.301C632.176 136.959 635.846 141.644 635.846 141.644Z" fill="#FDC2CC"/>
<path id="Vector_88" opacity="0.1" d="M635.664 164.58C634.597 164.124 633.483 163.83 632.349 163.704C630.691 163.49 629.173 163.129 628.294 162.731C628.385 162.323 628.457 161.909 628.508 161.492C628.508 161.492 635.56 163.118 635.854 163.379C635.961 163.482 635.845 163.999 635.664 164.58Z" fill="black"/>
<path id="Vector_89" opacity="0.1" d="M643.324 149.473C642.889 149.622 642.434 149.681 641.981 149.648C640.663 149.388 642.326 147.511 642.326 147.511L643.019 147.389C643.309 147.896 643.605 148.686 643.324 149.473Z" fill="black"/>
<path id="Vector_90" d="M631.833 142.815C631.833 142.815 629.597 142.751 628.795 143.792C627.992 144.833 628.164 147.639 628.164 147.639C628.164 147.639 627.996 153.258 629.252 156.403C629.294 156.504 629.299 156.62 629.266 156.725C629.252 156.764 629.252 156.74 629.252 156.74C629.252 156.74 628.45 160.84 627.648 161.556C626.845 162.272 629.367 163.118 632.356 163.507C635.345 163.896 636.541 164.873 636.541 164.873C636.541 164.873 637.058 164.232 637.107 162.791C637.155 161.351 636.31 150.884 636.31 150.884C636.31 150.884 639.463 151.794 641.356 150.689C641.356 150.689 642.216 151.211 643.019 149.779C643.821 148.347 642.454 146.786 642.454 146.786C642.454 146.786 641.192 148.218 637.694 146.331C634.197 144.444 632.92 142.751 631.833 142.815Z" fill="#B45181"/>
<path id="Vector_91" d="M614.689 180.685H614.002V181.793L614.689 183.55C614.689 183.55 615.607 183.744 615.665 183.744C615.723 183.744 616.467 183.55 616.467 183.55L616.697 183.094C616.697 183.094 614.173 181.985 614.689 180.685Z" fill="#E6E6F0"/>
<path id="Vector_92" d="M636.248 181.726L635.216 184.33L639.574 186.681L643.015 186.811C643.015 186.811 643.301 185.901 642.154 185.445L641.237 185.251C641.237 185.251 640.033 182.778 639.919 181.617C639.919 181.617 638.772 181.878 638.6 182.853C638.598 182.831 636.994 183.742 636.248 181.726Z" fill="#B45181"/>
<path id="Vector_93" d="M614.173 180.425L613.823 180.75L612.282 182.182L615.836 187.525C615.836 187.525 617.842 188.502 618.761 187.525C618.761 187.525 619.326 186.884 618.074 186.354C618.074 186.354 617.098 186.548 617.098 185.443C617.098 184.338 617.328 183.167 617.663 182.906C617.663 182.906 616.803 182.581 616.575 182.842C616.399 183.061 616.245 183.301 616.115 183.558C616.115 183.558 614.058 182.637 614.173 180.425Z" fill="#B45181"/>
<path id="Vector_94" opacity="0.1" d="M631.661 139.432C631.603 139.762 631.526 140.087 631.432 140.406C631.729 141.219 632.295 141.868 633.008 142.216C633.721 142.564 634.525 142.582 635.249 142.268C635.401 142.091 635.562 141.926 635.733 141.774C635.733 141.774 632.063 137.089 631.661 139.432Z" fill="black"/>
<path id="Vector_95" opacity="0.1" d="M631.345 148.122C631.345 148.122 633.123 150.79 635.703 150.856Z" fill="black"/>
<g id="Group_2" opacity="0.1">
<path id="Vector_96" opacity="0.1" d="M641.972 150.734C641.935 150.723 641.9 150.708 641.866 150.689C641.811 150.722 641.754 150.753 641.697 150.781C641.79 150.779 641.882 150.763 641.972 150.734Z" fill="black"/>
<path id="Vector_97" opacity="0.1" d="M642.582 147.053C642.519 146.963 642.453 146.876 642.382 146.793C642.382 146.793 642.005 147.22 641.075 147.301C641.588 147.359 642.105 147.274 642.582 147.053V147.053Z" fill="black"/>
<path id="Vector_98" opacity="0.1" d="M636.82 150.884L636.832 151.023C637.588 151.182 638.357 151.253 639.126 151.236C638.349 151.204 637.577 151.086 636.82 150.884V150.884Z" fill="black"/>
<path id="Vector_99" opacity="0.1" d="M632.865 163.511C629.883 163.12 627.361 162.276 628.156 161.56C628.951 160.844 629.761 156.744 629.761 156.744C629.761 156.744 629.761 156.768 629.774 156.729C629.807 156.624 629.802 156.508 629.761 156.407C628.505 153.254 628.672 147.643 628.672 147.643C628.672 147.643 628.501 144.846 629.303 143.796C629.9 143.02 631.292 142.86 631.965 142.828C631.902 142.822 631.839 142.822 631.776 142.828C631.776 142.828 629.541 142.764 628.738 143.805C627.936 144.846 628.107 147.652 628.107 147.652C628.107 147.652 627.94 153.271 629.196 156.415C629.237 156.517 629.242 156.633 629.209 156.738C629.196 156.777 629.196 156.753 629.196 156.753C629.196 156.753 628.399 160.84 627.589 161.556C626.779 162.272 629.309 163.118 632.298 163.507C635.287 163.896 636.483 164.873 636.483 164.873C636.543 164.791 636.596 164.703 636.641 164.61C636.059 164.292 634.861 163.768 632.865 163.511Z" fill="black"/>
</g>
<path id="Vector_100" d="M634.298 142.36C635.945 142.36 637.28 140.845 637.28 138.976C637.28 137.108 635.945 135.593 634.298 135.593C632.652 135.593 631.317 137.108 631.317 138.976C631.317 140.845 632.652 142.36 634.298 142.36Z" fill="#FDC2CC"/>
<path id="Vector_101" opacity="0.1" d="M638.542 137.463C638.295 138.164 637.559 138.429 636.913 138.611C635.99 138.867 634.995 139.12 634.112 138.722C633.997 138.649 633.865 138.62 633.735 138.639C633.63 138.686 633.543 138.773 633.486 138.884C632.513 140.458 632.671 142.554 632.419 144.457C632.339 145.049 632.206 145.66 631.854 146.102C631.168 146.957 629.874 146.925 629.243 147.834C628.827 148.432 628.823 149.264 628.827 150.027C628.827 150.84 628.82 151.655 628.808 152.47C628.797 153.004 628.774 153.558 628.561 154.032C628.2 154.836 627.393 155.218 626.649 155.528C626.186 155.725 625.708 155.924 625.21 155.87C624.713 155.817 624.216 155.443 624.152 154.879C624.063 154.113 624.758 153.579 625.237 153.028C626.002 152.149 626.316 150.871 626.344 149.636C626.371 149.137 626.307 148.637 626.156 148.167C625.981 147.682 625.668 147.274 625.48 146.795C624.9 145.32 625.615 143.614 626.472 142.323C627.329 141.033 628.382 139.774 628.565 138.173C628.581 137.826 628.624 137.482 628.695 137.145C628.827 136.679 629.139 135.392 629.484 135.097C630.036 134.625 630.684 134.319 631.368 134.208C631.897 134.12 632.437 134.152 632.963 134.037C633.577 133.902 634.148 133.571 634.762 133.447C636.089 133.18 637.53 134.93 638.112 136.311C638.272 136.734 638.692 137.033 638.542 137.463Z" fill="black"/>
<path id="Vector_102" d="M638.542 137.333C638.295 138.034 637.559 138.299 636.913 138.48C635.99 138.737 634.995 138.989 634.112 138.592C633.997 138.519 633.865 138.489 633.735 138.508C633.63 138.556 633.543 138.643 633.486 138.754C632.513 140.327 632.671 142.424 632.419 144.326C632.339 144.918 632.206 145.53 631.854 145.972C631.168 146.827 629.874 146.795 629.243 147.703C628.827 148.302 628.823 149.133 628.827 149.896C628.827 150.71 628.82 151.524 628.808 152.339C628.797 152.874 628.774 153.427 628.561 153.902C628.2 154.705 627.393 155.088 626.649 155.398C626.186 155.595 625.708 155.793 625.21 155.74C624.713 155.686 624.216 155.312 624.152 154.748C624.063 153.983 624.758 153.449 625.237 152.897C626.002 152.019 626.316 150.741 626.344 149.505C626.371 149.006 626.307 148.506 626.156 148.037C625.981 147.552 625.668 147.143 625.48 146.664C624.9 145.19 625.615 143.484 626.472 142.193C627.329 140.902 628.382 139.643 628.565 138.042C628.581 137.696 628.624 137.352 628.695 137.014C628.827 136.548 629.139 135.261 629.484 134.967C630.036 134.495 630.684 134.189 631.368 134.077C631.897 133.99 632.437 134.022 632.963 133.906C633.577 133.772 634.148 133.44 634.762 133.316C636.089 133.049 637.53 134.8 638.112 136.181C638.272 136.604 638.692 136.903 638.542 137.333Z" fill="#F569BC"/>
<path id="Vector_103" d="M648.176 130.829H697.743V187.074H648.176V130.829Z" fill="#F7DF1E"/>
<path id="Vector_104" d="M661.211 177.832L665.005 175.227C665.737 176.699 666.402 177.945 667.999 177.945C669.531 177.945 670.495 177.266 670.495 174.624V156.65H675.153V174.696C675.153 180.17 672.328 182.663 668.199 182.663C664.473 182.663 662.311 180.472 661.213 177.83L661.211 177.832ZM677.682 177.263L681.474 174.771C682.472 176.622 683.77 177.977 686.066 177.977C687.996 177.977 689.226 176.883 689.226 175.372C689.226 173.559 687.962 172.918 685.836 171.86L684.672 171.294C681.312 169.671 679.082 167.632 679.082 163.328C679.082 159.363 681.743 156.343 685.902 156.343C688.863 156.343 690.987 157.514 692.522 160.57L688.896 163.214C688.098 161.59 687.233 160.949 685.902 160.949C684.538 160.949 683.672 161.93 683.672 163.214C683.672 164.8 684.536 165.442 686.533 166.42L687.697 166.987C691.652 168.911 693.886 170.875 693.886 175.293C693.886 180.051 690.592 182.656 686.164 182.656C681.832 182.656 679.044 180.305 677.688 177.257" fill="black"/>
<path id="Vector_105" d="M719.486 218.289C719.486 218.289 717.552 218.443 716.358 216.091C716.124 215.618 715.848 215.173 715.535 214.764C715.149 214.047 714.949 213.221 714.956 212.381C715.022 210.639 713.421 201.098 713.421 201.098C713.421 201.098 713.621 197.464 712.02 195.192C710.965 193.696 709.449 189.421 708.536 186.659C708.597 186.721 708.671 186.765 708.75 186.788L708.713 186.55H708.75L708.277 183.603C707.589 182.705 707.009 181.708 706.552 180.636L706.66 180.611L708.076 180.273C708.076 180.273 710.378 176.56 710.524 174.735H710.713H710.978C713.109 174.722 715.238 174.848 717.356 175.113V175.113C717.356 175.103 717.341 175.056 717.322 174.981C717.232 174.613 717.163 174.24 717.115 173.863H717.247L718.565 173.765C718.565 173.765 723.102 168.011 721.434 166.951C719.765 165.89 718.03 171.721 718.03 171.721L717.465 171.837L717.313 171.869C717.328 171.843 717.343 171.82 717.36 171.796C717.377 171.773 709.954 171.42 708.811 169.372C708.811 169.372 705.541 166.418 705.407 164.456C705.383 164.049 705.261 163.657 705.053 163.324C704.846 162.991 704.562 162.729 704.232 162.567C703.828 162.348 703.38 162.253 702.934 162.291L701.403 162.411L701.51 162.624H701.467C701.371 162.375 701.29 162.118 701.226 161.855H701.258C701.246 161.802 701.237 161.748 701.228 161.695C701.697 161.569 702.139 161.338 702.528 161.015C702.917 160.692 703.245 160.283 703.493 159.814C703.74 159.344 703.902 158.823 703.969 158.281C704.036 157.739 704.006 157.188 703.881 156.659C704.031 156.681 704.183 156.676 704.332 156.644C704.897 156.514 705.294 155.864 705.309 155.214C705.309 155.171 705.309 155.129 705.309 155.088C705.309 155.088 705.309 155.071 705.309 155.062C705.303 154.736 705.234 154.415 705.105 154.123C704.976 153.831 704.792 153.575 704.565 153.374C704.26 153.085 703.895 152.88 703.623 152.559C703.294 152.177 703.113 151.664 702.857 151.213C702.428 150.467 701.791 149.905 701.049 149.616C700.497 149.403 699.819 149.381 699.395 149.83C699.177 150.063 699.05 150.401 698.805 150.597C698.453 150.884 697.975 150.798 697.544 150.856C697.153 150.924 696.783 151.1 696.467 151.369C696.151 151.638 695.897 151.991 695.73 152.397C695.518 152.906 695.416 153.464 695.432 154.026C695.428 154.411 695.468 154.796 695.553 155.169C695.636 155.541 695.758 155.9 695.848 156.272C696.037 157.042 696.08 157.852 696.297 158.61C696.442 159.174 696.733 159.675 697.131 160.049L697.067 160.361C697.026 160.361 695.986 160.624 695.268 162.404C694.703 163.809 692.78 165.258 691.935 165.843C691.777 165.953 691.64 166.097 691.532 166.267C691.424 166.438 691.347 166.631 691.305 166.835C691.224 167.248 691.188 167.671 691.198 168.094C691.183 169.007 691.351 170.27 691.997 171.871C693.464 175.504 694.532 177.095 694.532 177.095C694.532 177.095 694.613 178.208 694.619 179.382C694.619 180.256 694.562 181.126 694.398 181.562C694.259 181.929 694.21 182.868 694.221 183.941C694.221 185.997 694.398 188.679 694.398 188.679C694.398 188.679 694.909 188.79 695.698 188.921L696.189 198.736C696.251 199.924 695.915 201.096 695.248 202.015C694.903 202.498 694.505 202.929 694.063 203.297C692.662 204.432 689.659 216.397 689.659 216.397C689.659 216.397 689.806 216.397 690.047 216.429L689.124 219.351C689.124 219.351 692.812 222.557 695.055 221.681C695.298 221.591 695.553 221.55 695.809 221.561C696.251 221.561 697.199 221.163 696.671 220.64C695.653 219.576 694.693 218.442 693.795 217.246C693.868 217.286 693.937 217.332 694.003 217.385V217.361L694.035 217.385C694.035 217.385 694.035 217.267 694.059 217.075L694.027 217.062C694.095 216.275 694.31 214.283 694.735 214.052C695.268 213.749 699.207 204.889 699.207 204.889L703.143 193.379C703.143 193.379 706.279 199.514 708.948 200.572V203.137C708.948 203.137 710.415 210.709 710.95 211.541C711.485 212.372 710.95 215.705 710.95 215.705C711.056 215.842 711.177 215.962 711.31 216.064L710.882 218.808C710.882 218.808 713.952 218.656 719.156 220.473C719.153 220.484 721.155 219.501 719.486 218.289ZM707.21 178.687L706.56 178.871L706.432 178.907C706.418 178.815 706.409 178.762 706.409 178.762C706.26 178.838 706.1 178.882 705.936 178.892C705.706 178.064 705.573 177.205 705.541 176.338C705.322 175.3 705.189 174.241 705.143 173.175C705.143 172.623 705.224 172.142 705.407 171.871L705.624 171.89L705.774 172.052L705.786 172.063L705.863 172.142L705.944 172.223L705.957 172.236L706.044 172.324L706.059 172.339L706.147 172.424L706.247 172.518L706.27 172.54L706.375 172.636L706.479 172.73L706.503 172.751L706.618 172.85L706.643 172.869L706.752 172.961L706.771 172.976L706.895 173.076L706.925 173.1L707.057 173.202H707.068L707.196 173.299L707.227 173.322L707.364 173.423L707.394 173.444L707.522 173.534L707.547 173.551L707.694 173.649L707.729 173.673L707.882 173.769H707.893L708.042 173.859L708.078 173.88L708.236 173.97L708.268 173.987L708.415 174.064L708.443 174.079L708.609 174.16L708.649 174.179L708.82 174.258C707.756 175.588 707.21 178.687 707.21 178.687Z" fill="url(#paint0_linear)"/>
<path id="Vector_106" d="M690.752 214.629L689.514 218.547C689.514 218.547 692.905 221.497 695.108 220.886C695.44 220.792 695.779 220.73 696.12 220.7C696.575 220.661 697.361 220.283 696.873 219.804C695.31 218.252 693.225 215.369 693.225 215.369L690.752 214.629Z" fill="#4F4D59"/>
<path id="Vector_107" d="M711.336 214.26L710.75 218.03C710.75 218.03 713.747 217.883 718.829 219.657C718.829 219.657 720.784 218.695 719.155 217.519C719.155 217.519 717.271 217.667 716.094 215.382C714.917 213.097 714.21 213.386 714.21 213.386L711.336 214.26Z" fill="#4F4D59"/>
<path id="Vector_108" d="M695.828 186.91L696.393 198.383C696.455 199.606 696.098 200.808 695.396 201.739C695.08 202.166 694.718 202.549 694.321 202.878C692.954 203.987 690.021 215.666 690.021 215.666C690.021 215.666 693.343 215.88 694.255 216.628C694.255 216.628 694.443 213.672 694.971 213.375C695.498 213.078 699.335 204.43 699.335 204.43L703.179 193.193C703.179 193.193 706.24 199.178 708.846 200.217V202.731C708.846 202.731 710.28 210.124 710.801 210.936C711.323 211.748 710.801 214.997 710.801 214.997C710.801 214.997 712.308 217.134 715.751 214.85C715.751 214.85 714.644 213.445 714.71 211.744C714.775 210.043 713.203 200.73 713.203 200.73C713.203 200.73 713.391 197.182 711.835 194.959C710.28 192.736 707.694 184.244 707.694 184.244L705.901 179.867L695.828 186.91Z" fill="#C48C96"/>
<g id="Group_3" opacity="0.1">
<path id="Vector_109" opacity="0.1" d="M690.654 215.664C690.654 215.664 693.584 203.985 694.954 202.876C695.374 202.527 695.753 202.119 696.084 201.662C696.752 200.744 697.089 199.572 697.026 198.383L696.451 186.907L706.057 180.187L705.927 179.869L695.865 186.91L696.44 198.385C696.503 199.574 696.167 200.746 695.498 201.664C695.168 202.121 694.788 202.529 694.368 202.878C693.002 203.985 690.068 215.664 690.068 215.664C690.068 215.664 693.39 215.878 694.302 216.626C694.302 216.626 694.302 216.51 694.327 216.324C693.044 215.824 690.654 215.664 690.654 215.664Z" fill="black"/>
<path id="Vector_110" opacity="0.1" d="M711.434 214.999C711.434 214.999 711.956 211.746 711.434 210.938C710.912 210.13 709.479 202.733 709.479 202.733V200.215C706.874 199.18 703.812 193.191 703.812 193.191L703.586 193.862C704.469 195.453 706.825 199.398 708.895 200.219V202.733C708.895 202.733 710.329 210.126 710.85 210.938C711.372 211.75 710.85 214.999 710.85 214.999C710.85 214.999 711.577 216.038 713.182 215.897C711.982 215.784 711.434 214.999 711.434 214.999Z" fill="black"/>
</g>
<path id="Vector_111" d="M718.241 174.047L716.962 174.143L716.288 174.194V172.345L717.173 172.164L717.721 172.05C717.721 172.05 719.416 166.358 721.044 167.393C722.671 168.427 718.241 174.047 718.241 174.047Z" fill="#714B4F"/>
<path id="Vector_112" d="M697.722 158.809C697.722 158.809 696.875 162.505 696.615 164.794C696.355 167.083 702.672 165.238 702.672 165.238C702.672 165.238 700.261 161.913 701.631 160.139L697.722 158.809Z" fill="#714B4F"/>
<path id="Vector_113" d="M704.561 174.198L704.691 175.603L702.672 175.455L700.653 173.459L698.634 167.025L697.334 164.732L696.357 163.328L696.749 161.618C696.749 161.618 696.928 161.795 697.229 162.056C698.222 162.911 700.548 164.708 702.248 164.213C702.327 164.19 702.404 164.162 702.48 164.129L705.021 169.082L704.561 174.198Z" fill="#E6E6F0"/>
<path id="Vector_114" opacity="0.1" d="M697.267 161.184C697.267 161.184 696.225 161.398 695.508 163.18C694.958 164.544 693.097 165.959 692.266 166.529C692.108 166.639 691.97 166.784 691.862 166.955C691.753 167.126 691.676 167.32 691.635 167.525C691.467 168.368 691.403 169.939 692.315 172.198C693.748 175.746 694.79 177.298 694.79 177.298C694.79 177.298 695.05 180.846 694.66 181.88C694.27 182.915 694.66 188.607 694.66 188.607C694.66 188.607 701.499 190.086 703.78 188.607C706.061 187.128 705.735 181.436 705.735 181.436C705.735 181.436 707.884 186.61 708.665 186.758L708.21 183.874C708.21 183.874 705.669 180.769 705.539 176.778C705.539 176.778 704.757 173.155 705.409 172.196C705.409 172.196 716.418 173.23 717.07 172.343C717.07 172.343 709.839 171.973 708.731 169.977C708.731 169.977 705.539 167.094 705.409 165.172C705.39 164.811 705.29 164.462 705.119 164.157C704.948 163.853 704.711 163.602 704.431 163.43C703.988 163.144 703.48 163.015 702.972 163.06L701.501 163.176C701.501 163.176 704.042 168.276 703.912 168.947C703.782 169.618 704.042 175.009 704.042 175.009C704.042 175.009 701.101 167.838 699.808 167.025C698.514 166.213 697.005 162.87 697.005 162.87L697.265 161.182" fill="black"/>
<path id="Vector_115" opacity="0.1" d="M704.561 174.198L704.691 175.603L702.672 175.455L700.653 173.459L698.634 167.025L697.334 164.732L696.357 163.328L696.749 161.618C696.749 161.618 696.928 161.795 697.229 162.056L697.139 162.639C697.139 162.639 698.645 165.978 699.939 166.792C701.233 167.607 704.173 174.776 704.173 174.776C704.173 174.776 703.913 169.379 704.043 168.714C704.132 168.263 702.991 165.771 702.248 164.213C702.327 164.19 702.404 164.162 702.48 164.129L705.021 169.082L704.561 174.198Z" fill="black"/>
<path id="Vector_116" opacity="0.1" d="M716.962 174.143L716.288 174.194V172.345L717.173 172.164C716.864 172.627 716.875 173.448 716.962 174.143Z" fill="black"/>
<path id="Vector_117" d="M697.267 160.964C697.267 160.964 696.225 161.177 695.508 162.96C694.958 164.324 693.097 165.739 692.266 166.309C692.108 166.419 691.97 166.564 691.862 166.735C691.753 166.906 691.676 167.1 691.635 167.305C691.467 168.147 691.403 169.718 692.315 171.978C693.748 175.526 694.79 177.078 694.79 177.078C694.79 177.078 695.05 180.626 694.66 181.66C694.27 182.695 694.66 188.386 694.66 188.386C694.66 188.386 701.499 189.866 703.78 188.386C706.061 186.907 705.735 181.215 705.735 181.215C705.735 181.215 707.882 186.382 708.665 186.54L708.21 183.656C708.21 183.656 705.669 180.551 705.539 176.56C705.539 176.56 704.757 172.937 705.409 171.978C705.409 171.978 707.95 175.083 710.816 175.009C712.905 174.994 714.993 175.118 717.07 175.378C717.07 175.378 716.418 173.012 717.07 172.125C717.07 172.125 709.839 171.755 708.731 169.759C708.731 169.759 705.539 166.876 705.409 164.954C705.39 164.593 705.29 164.244 705.119 163.939C704.948 163.635 704.711 163.384 704.431 163.212C703.988 162.926 703.48 162.797 702.972 162.842L701.501 162.958C701.501 162.958 704.042 168.058 703.912 168.729C703.782 169.4 704.042 174.79 704.042 174.79C704.042 174.79 701.101 167.615 699.808 166.803C698.514 165.991 697.005 162.657 697.005 162.657L697.265 160.968" fill="#C48C96"/>
<path id="Vector_118" opacity="0.1" d="M695.828 168.725C695.828 168.725 697.391 174.709 698.303 175.451C699.214 176.193 704.752 179.961 706.381 179.074C706.381 179.074 706.773 181.292 706.192 181.81C706.192 181.81 700.118 181.54 700.069 181.515C700.069 181.515 696.095 180.923 695.443 178.706C694.792 176.49 694.01 172.722 694.01 172.722L695.828 168.725Z" fill="black"/>
<path id="Vector_119" d="M704.172 175.489C704.297 175.489 704.399 175.324 704.399 175.12C704.399 174.915 704.297 174.75 704.172 174.75C704.046 174.75 703.944 174.915 703.944 175.12C703.944 175.324 704.046 175.489 704.172 175.489Z" fill="#BA7855"/>
<path id="Vector_120" d="M704.821 178.076C704.947 178.076 705.049 177.91 705.049 177.706C705.049 177.502 704.947 177.336 704.821 177.336C704.695 177.336 704.593 177.502 704.593 177.706C704.593 177.91 704.695 178.076 704.821 178.076Z" fill="#BA7855"/>
<g id="Group_4" opacity="0.1">
<path id="Vector_121" opacity="0.1" d="M695.118 188.305C695.118 188.305 694.726 182.613 695.118 181.579C695.509 180.544 695.248 176.996 695.248 176.996C695.248 176.996 694.206 175.445 692.773 171.896C691.859 169.637 691.925 168.066 692.093 167.224C692.134 167.019 692.211 166.825 692.319 166.654C692.428 166.483 692.565 166.338 692.724 166.228C693.554 165.651 695.413 164.242 695.965 162.879C696.37 161.878 696.877 161.372 697.242 161.12L697.267 160.957C697.267 160.957 696.225 161.171 695.508 162.954C694.958 164.317 693.097 165.732 692.266 166.303C692.108 166.413 691.97 166.557 691.862 166.728C691.753 166.9 691.676 167.094 691.635 167.299C691.467 168.141 691.403 169.712 692.315 171.971C693.748 175.519 694.79 177.071 694.79 177.071C694.79 177.071 695.05 180.619 694.66 181.654C694.27 182.688 694.66 188.38 694.66 188.38C694.66 188.38 699.546 189.436 702.435 188.87C699.517 189.265 695.118 188.305 695.118 188.305Z" fill="black"/>
<path id="Vector_122" opacity="0.1" d="M703.91 168.725C703.821 169.18 703.91 171.858 703.983 173.499C704.298 174.228 704.495 174.714 704.495 174.714C704.495 174.714 704.235 169.317 704.365 168.652C704.49 168.011 702.201 163.381 701.973 162.924L701.499 162.96C701.499 162.96 704.041 168.06 703.91 168.725Z" fill="black"/>
<path id="Vector_123" opacity="0.1" d="M711.272 174.934C708.406 175.009 705.865 171.903 705.865 171.903C705.789 172.023 705.733 172.159 705.701 172.303C706.454 173.098 708.526 175.066 710.816 175.006C712.905 174.992 714.993 175.116 717.07 175.376C717.07 175.376 717.056 175.327 717.036 175.244C715.121 175.019 713.197 174.916 711.272 174.934Z" fill="black"/>
<path id="Vector_124" opacity="0.1" d="M706.187 181.143C706.187 181.143 706.213 181.605 706.198 182.297C706.876 183.823 708.11 186.433 708.662 186.538L708.566 185.931C707.618 184.58 706.187 181.143 706.187 181.143Z" fill="black"/>
</g>
<path id="Vector_125" d="M708.014 180.397L706.629 180.728L705.537 180.989L706.123 179.14L706.531 179.025L707.166 178.845C707.166 178.845 708.078 173.671 709.903 174.04C711.728 174.41 708.014 180.397 708.014 180.397Z" fill="#714B4F"/>
<path id="Vector_126" opacity="0.1" d="M706.631 180.735L705.539 180.995L706.125 179.146L706.533 179.031C706.624 179.593 706.657 180.164 706.631 180.735Z" fill="black"/>
<path id="Vector_127" d="M695.828 168.577C695.828 168.577 697.391 174.562 698.303 175.304C699.214 176.045 704.752 179.813 706.381 178.926C706.381 178.926 706.773 181.145 706.192 181.662C706.192 181.662 700.118 181.393 700.069 181.367C700.069 181.367 696.095 180.775 695.443 178.559C694.792 176.342 694.01 172.574 694.01 172.574L695.828 168.577Z" fill="#C48C96"/>
<path id="Vector_128" opacity="0.1" d="M697.786 158.967C697.786 158.967 697.655 159.547 697.478 160.389C697.838 161.164 698.414 161.783 699.115 162.15C699.817 162.517 700.606 162.612 701.359 162.419C701.203 161.66 701.237 160.893 701.695 160.299L697.786 158.967Z" fill="black"/>
<path id="Vector_129" d="M700.523 162.368C702.466 162.368 704.042 160.58 704.042 158.375C704.042 156.17 702.466 154.383 700.523 154.383C698.58 154.383 697.005 156.17 697.005 158.375C697.005 160.58 698.58 162.368 700.523 162.368Z" fill="#714B4F"/>
<path id="Vector_130" opacity="0.1" d="M703.578 157.277C703.833 157.357 704.1 157.376 704.362 157.332C704.633 157.249 704.872 157.068 705.044 156.816C705.216 156.564 705.311 156.255 705.315 155.937C705.31 155.618 705.242 155.305 705.117 155.019C704.991 154.734 704.811 154.485 704.59 154.289C704.292 154.006 703.936 153.808 703.663 153.494C703.341 153.119 703.164 152.619 702.91 152.179C702.491 151.451 701.87 150.903 701.145 150.621C700.606 150.407 699.945 150.39 699.531 150.835C699.318 151.063 699.193 151.39 698.956 151.585C698.611 151.863 698.144 151.781 697.724 151.837C697.344 151.903 696.983 152.073 696.675 152.334C696.366 152.595 696.118 152.938 695.954 153.333C695.632 154.139 695.571 155.047 695.781 155.898C695.862 156.261 695.982 156.612 696.069 156.967C696.257 157.719 696.295 158.508 696.506 159.25C696.717 159.991 697.152 160.718 697.811 160.94C697.759 160.108 697.904 159.275 698.231 158.527C698.285 158.364 698.391 158.229 698.529 158.151C698.646 158.117 698.769 158.117 698.886 158.151C699.713 158.29 700.555 158.096 701.269 157.604C701.52 157.433 701.909 156.843 702.175 156.785C702.518 156.719 703.22 157.187 703.578 157.277Z" fill="black"/>
<path id="Vector_131" d="M703.578 157.129C703.833 157.21 704.1 157.229 704.362 157.185C704.633 157.102 704.872 156.92 705.044 156.668C705.216 156.416 705.311 156.108 705.315 155.789C705.31 155.47 705.242 155.157 705.117 154.872C704.991 154.587 704.811 154.337 704.59 154.141C704.292 153.859 703.936 153.66 703.663 153.346C703.341 152.972 703.164 152.472 702.91 152.032C702.491 151.303 701.87 150.755 701.145 150.473C700.606 150.26 699.945 150.243 699.531 150.687C699.318 150.916 699.193 151.243 698.956 151.437C698.611 151.715 698.144 151.634 697.724 151.69C697.344 151.755 696.983 151.926 696.675 152.187C696.366 152.448 696.118 152.791 695.954 153.186C695.632 153.991 695.571 154.899 695.781 155.751C695.862 156.114 695.982 156.465 696.069 156.819C696.257 157.572 696.295 158.36 696.506 159.102C696.717 159.844 697.152 160.57 697.811 160.793C697.761 159.961 697.907 159.128 698.235 158.382C698.289 158.218 698.395 158.084 698.532 158.006C698.65 157.971 698.773 157.971 698.89 158.006C699.716 158.144 700.559 157.951 701.273 157.458C701.523 157.287 701.913 156.697 702.179 156.64C702.518 156.571 703.22 157.039 703.578 157.129Z" fill="#503F43"/>
<path id="Vector_132" d="M738.677 143.952L735.806 180.438L722.905 184.499L710.039 180.438L707.172 143.952H738.677Z" fill="#E44D26"/>
<path id="Vector_133" d="M722.923 181.395L733.348 178.116L735.797 146.936H722.923V181.395Z" fill="#F16529"/>
<path id="Vector_134" d="M717.345 155.887H722.923V151.412H713.035L713.129 152.613L714.099 164.946H722.925V160.47H717.706L717.345 155.887ZM718.241 167.184H714.286L714.838 174.211L722.906 176.763H722.925V172.093H722.908L718.516 170.747L718.241 167.184Z" fill="#EBEBEB"/>
<path id="Vector_135" d="M710.104 134.035H712.108V136.281H713.941V134.035H715.945V140.84H713.941V138.562H712.108V140.84H710.104V134.035ZM718.58 136.292H716.815V134.035H722.349V136.292H720.584V140.84H718.582V136.292H718.58ZM723.228 134.035H725.319L726.606 136.426L727.89 134.035H729.981V140.84H727.984V137.467L726.606 139.887H726.572L725.191 137.467V140.84H723.228V134.035ZM730.977 134.035H732.981V138.589H735.806V140.838H730.983V134.035H730.977Z" fill="black"/>
<path id="Vector_136" d="M722.91 164.946H727.766L727.308 170.751L722.91 172.097V176.763L730.996 174.22L731.054 173.463L731.981 161.68L732.077 160.479H722.91V164.954V164.946ZM722.91 155.877V155.887H732.437L732.516 154.881L732.704 152.611L732.798 151.41H722.91V155.875V155.877Z" fill="white"/>
<path id="Vector_137" d="M623.073 170.888C622.705 169.667 622.176 168.109 621.754 167.754C621.729 167.731 621.701 167.712 621.671 167.696H621.619V166.19L620.628 166.369C620.469 165.825 620.349 165.266 620.268 164.7C620.364 164.808 620.485 164.882 620.618 164.912C620.75 164.942 620.887 164.927 621.012 164.869C620.995 164.839 620.982 164.807 620.967 164.775L621.012 164.753C620.856 164.441 620.774 164.088 620.773 163.729C620.781 163.402 620.827 163.077 620.911 162.763C621.088 162.069 621.387 161.419 621.555 160.722C621.662 160.272 621.712 159.807 621.705 159.341C621.71 158.552 621.552 157.772 621.242 157.065C621.165 156.862 621.045 156.683 620.892 156.546C620.752 156.458 620.609 156.379 620.462 156.308C620.217 156.121 620.005 155.881 619.839 155.603C619.135 154.631 618.193 153.918 617.132 153.553C616.856 153.437 616.557 153.41 616.268 153.476C615.603 153.69 615.36 154.616 614.821 155.105C614.345 155.533 613.691 155.582 613.096 155.727C612.485 155.845 611.923 156.179 611.489 156.682C611.208 157.048 611.054 157.518 611.058 158.003C611.042 158.23 611.077 158.457 611.161 158.664C611.244 158.871 611.373 159.049 611.535 159.183C611.719 159.321 611.927 159.41 612.145 159.445C612.364 159.48 612.586 159.46 612.796 159.386C612.632 160.031 612.587 160.707 612.663 161.373C612.74 162.038 612.937 162.679 613.242 163.253C613.547 163.828 613.954 164.326 614.436 164.714C614.919 165.102 615.466 165.373 616.045 165.51L616.162 165.745C616.518 166.499 616.789 167.301 616.967 168.133C616.055 168.72 615.059 169.27 614.458 169.321C614.434 169.587 614.39 169.851 614.328 170.11C614.187 170.758 613.917 171.362 613.539 171.873C612.721 172.916 609.043 180.803 609.043 180.803C609.043 180.803 608.926 181.117 608.738 181.658C606.453 181.976 602.726 182.436 601.684 182.199L597.597 177.791C597.597 177.791 596.278 178.935 596.391 180.324L595.655 179.529C595.655 179.529 591.771 182.891 597.904 185.086L607.235 186.315C606.346 189.359 605.517 192.901 605.773 194.829H605.85C606.029 194.828 606.207 194.813 606.383 194.782L606.366 195.124L605.468 213.383C605.468 213.383 605.263 216.745 608.022 218.254C608.022 218.254 611.395 229.504 610.065 230.78C610.065 230.78 610.224 230.874 610.489 231.006L607.715 233.785C607.715 233.785 605.671 234.364 604.547 234.249C604.349 234.218 604.149 234.271 603.983 234.398C603.818 234.524 603.699 234.715 603.65 234.935C603.65 234.958 603.65 234.982 603.639 235.007V235.037C603.639 235.061 603.639 235.086 603.639 235.112C603.639 235.138 603.639 235.131 603.639 235.14C603.639 235.148 603.639 235.183 603.639 235.204V235.232C603.639 235.257 603.639 235.281 603.652 235.307V235.334C603.658 235.361 603.666 235.388 603.675 235.413V235.439C603.684 235.465 603.696 235.49 603.707 235.516V235.533C603.72 235.559 603.733 235.584 603.748 235.61L603.761 235.631C603.778 235.659 603.796 235.686 603.816 235.713L603.831 235.734C603.852 235.762 603.874 235.788 603.899 235.815H603.91L603.986 235.888L604.003 235.903L604.095 235.978L604.117 235.995L604.225 236.065H604.242L604.357 236.129H604.374L604.507 236.191L604.536 236.204L604.684 236.26H604.709L604.869 236.307H604.882L605.07 236.348H605.106L605.295 236.38H605.33L605.547 236.403C605.967 236.439 606.534 236.452 607.189 236.45C607.189 236.45 607.189 236.469 607.189 236.478C607.189 236.486 607.189 236.521 607.189 236.542V236.57C607.189 236.595 607.189 236.619 607.203 236.645V236.672C607.209 236.699 607.216 236.726 607.225 236.751V236.777C607.235 236.803 607.246 236.828 607.257 236.854V236.871C607.27 236.897 607.284 236.922 607.299 236.948L607.312 236.969C607.328 236.997 607.346 237.024 607.366 237.051L607.381 237.072C607.402 237.1 607.425 237.126 607.449 237.153H607.459L607.534 237.226L607.551 237.241L607.643 237.316L607.666 237.333L607.771 237.403H607.788L607.903 237.468H607.92L608.054 237.529L608.082 237.542L608.231 237.598H608.255L608.416 237.645H608.429L608.617 237.686H608.653L608.841 237.718H608.877L609.094 237.741C611.751 237.974 620.232 237.277 620.232 237.277V237.249V237.215C620.317 236.766 620.724 234.157 619.278 232.227C619.321 232.175 619.362 232.122 619.402 232.066C619.402 232.066 618.272 229.863 618.891 229.168C619.511 228.473 615.899 216.519 615.899 216.519C615.899 216.519 613.957 213.039 615.081 209.096C616.206 205.152 614.979 200.862 614.979 200.862C614.979 200.862 617.663 199.96 617.712 196.214C617.712 196.1 617.712 195.983 617.712 195.865C617.768 195.875 617.825 195.879 617.882 195.878C617.919 195.881 617.957 195.881 617.995 195.878C617.995 195.878 617.484 193.79 618.097 192.283C618.709 190.776 620.038 192.168 621.265 186.02C622.152 181.572 622.931 176.458 623.297 173.968C623.447 172.936 623.37 171.878 623.073 170.888V170.888ZM599.752 183.926L598.819 182.921C599.128 183.067 599.471 183.208 599.853 183.349L603.366 183.817C601.799 183.977 600.335 184.067 599.752 183.932V183.926Z" fill="url(#paint1_linear)"/>
<path id="Vector_138" d="M608.647 183.34C608.647 183.34 601.418 184.479 599.912 184.137L595.896 179.807C595.896 179.807 592.08 183.111 598.105 185.277L609.35 186.758L608.647 183.34Z" fill="#FDC2CC"/>
<path id="Vector_139" opacity="0.05" d="M608.647 183.34C608.647 183.34 601.418 184.479 599.912 184.137L595.896 179.807C595.896 179.807 592.08 183.111 598.105 185.277L609.35 186.758L608.647 183.34Z" fill="black"/>
<path id="Vector_140" d="M594.497 186.215L578.875 181.299L575.394 136.991H613.646L610.162 181.292L594.497 186.215Z" fill="#264DE4"/>
<path id="Vector_141" d="M607.178 178.473L610.156 140.616H594.523V182.447L607.178 178.473Z" fill="#2965F1"/>
<path id="Vector_142" d="M583.384 157.042L583.814 162.475H594.531V157.042H583.384ZM582.522 146.043L582.957 151.476H594.529V146.043H582.512H582.522ZM594.529 171.155H594.508L589.174 169.52L588.833 165.185H584.017L584.688 173.718L594.497 176.815H594.519L594.529 171.155Z" fill="#EBEBEB"/>
<path id="Vector_143" d="M584.397 124.944H590.197V127.697H586.821V130.45H590.197V133.203H584.397V124.944ZM591.366 124.944H597.165V127.338H593.783V127.817H597.158V133.323H591.357V130.809H594.732V130.331H591.357V124.944H591.366ZM598.335 124.944H604.134V127.338H600.742V127.817H604.117V133.323H598.316V130.809H601.691V130.331H598.316V124.944H598.335Z" fill="black"/>
<path id="Vector_144" d="M605.636 157.042L606.5 146.043H594.497V151.476H601.245L600.81 157.033H594.497V162.466H600.394L599.829 169.52L594.497 171.159V176.812L604.313 173.724L604.385 172.805L605.515 158.497L605.632 157.037L605.636 157.042Z" fill="white"/>
<path id="Vector_145" d="M611.26 229.598L607.745 233.129C607.745 233.129 605.737 233.699 604.634 233.584C603.53 233.468 603.027 235.52 605.637 235.749C608.248 235.978 616.58 235.294 616.58 235.294C616.58 235.294 617.383 231.647 614.974 229.598H611.26Z" fill="#47465A"/>
<path id="Vector_146" opacity="0.05" d="M611.26 229.598L607.745 233.129C607.745 233.129 605.737 233.699 604.634 233.584C603.53 233.468 603.027 235.52 605.637 235.749C608.248 235.978 616.58 235.294 616.58 235.294C616.58 235.294 617.383 231.647 614.974 229.598H611.26Z" fill="black"/>
<path id="Vector_147" opacity="0.3" d="M616.705 233.719C616.699 234.134 616.656 234.548 616.578 234.954C616.578 234.954 608.246 235.638 605.635 235.409C604.379 235.3 603.846 234.768 603.752 234.259C603.637 234.845 604.093 235.617 605.635 235.755C608.246 235.984 616.578 235.3 616.578 235.3C616.677 234.781 616.719 234.25 616.705 233.719Z" fill="white"/>
<path id="Vector_148" d="M615.373 165.008C615.373 165.008 617.582 168.539 616.778 170.932C615.974 173.326 620.995 168.425 620.995 168.425C620.995 168.425 619.389 165.221 620.193 161.802L615.373 165.008Z" fill="#FDC2CC"/>
<path id="Vector_149" d="M614.77 230.966L611.26 234.497C611.26 234.497 609.252 235.067 608.148 234.952C607.044 234.836 606.542 236.888 609.152 237.117C611.763 237.346 620.095 236.662 620.095 236.662C620.095 236.662 620.897 233.015 618.488 230.966H614.77Z" fill="#47465A"/>
<path id="Vector_150" d="M615.78 230.168C615.256 230.901 614.518 231.184 613.746 231.226C611.99 231.32 610.058 230.168 610.058 230.168C611.363 228.916 608.05 217.863 608.05 217.863C605.34 216.382 605.539 213.078 605.539 213.078L606.417 195.145L606.639 190.639L609.451 188.703L611.666 190.626L613.768 192.456C613.905 193.038 613.994 193.634 614.032 194.234C614.277 198.422 611.359 199.407 611.359 199.407C611.359 199.407 612.565 203.622 611.459 207.497C610.354 211.372 612.262 214.79 612.262 214.79C612.262 214.79 615.876 226.639 615.275 227.323C614.674 228.007 615.78 230.168 615.78 230.168Z" fill="#565171"/>
<path id="Vector_151" opacity="0.05" d="M615.78 230.168C615.256 230.901 614.518 231.184 613.746 231.226C611.99 231.32 610.058 230.168 610.058 230.168C611.363 228.916 608.05 217.863 608.05 217.863C605.34 216.382 605.539 213.078 605.539 213.078L606.417 195.145L606.639 190.639L609.451 188.703L611.666 190.626L613.768 192.456C613.905 193.038 613.994 193.634 614.032 194.234C614.277 198.422 611.359 199.407 611.359 199.407C611.359 199.407 612.565 203.622 611.459 207.497C610.354 211.372 612.262 214.79 612.262 214.79C612.262 214.79 615.876 226.639 615.275 227.323C614.674 228.007 615.78 230.168 615.78 230.168Z" fill="black"/>
<path id="Vector_152" d="M619.289 231.534C617.582 233.926 613.567 231.534 613.567 231.534C613.648 231.45 613.708 231.343 613.742 231.224C614.478 228.952 611.258 218.09 611.258 218.09C608.547 216.609 608.244 213.078 608.244 213.078L607.534 194.82L607.442 192.456L611.666 190.626L612.964 190.064L617.287 193.824C617.472 194.603 617.564 195.407 617.558 196.214C617.503 199.892 614.872 200.781 614.872 200.781C614.872 200.781 616.078 204.996 614.972 208.871C613.866 212.746 615.78 216.153 615.78 216.153C615.78 216.153 619.394 228.003 618.793 228.687C618.193 229.371 619.289 231.534 619.289 231.534Z" fill="#565171"/>
<path id="Vector_153" opacity="0.1" d="M617.558 196.214C616.69 196.073 614.932 194.886 614.03 194.243C613.685 193.997 613.465 193.833 613.465 193.833C613.465 193.833 612.561 190.983 610.152 193.149C609.368 193.871 608.483 194.439 607.534 194.829C607.171 194.974 606.797 195.081 606.417 195.147L606.639 190.641L609.451 188.705L611.666 190.629L612.964 190.066L617.287 193.824C617.472 194.603 617.563 195.407 617.558 196.214V196.214Z" fill="black"/>
<path id="Vector_154" d="M622.992 174.35C622.634 176.795 621.862 181.831 620.995 186.189C619.79 192.227 618.485 190.859 617.884 192.341C617.283 193.822 617.784 195.872 617.784 195.872C616.78 195.985 613.467 193.48 613.467 193.48C613.467 193.48 612.563 190.631 610.154 192.796C607.745 194.961 605.837 194.846 605.837 194.846C605.334 191.086 609.05 181.059 609.05 181.059C609.05 181.059 612.665 173.311 613.467 172.296C613.839 171.794 614.105 171.202 614.243 170.565C614.305 170.311 614.348 170.053 614.371 169.791C615.676 169.678 618.891 167.171 618.891 167.171L621.402 166.715V168.197C621.432 168.212 621.46 168.231 621.485 168.254C621.897 168.611 622.427 170.133 622.779 171.332C623.067 172.303 623.14 173.34 622.992 174.35Z" fill="#E1A0A7"/>
<path id="Vector_155" d="M611.26 185.05L609.962 184.879L600.015 183.569C593.988 181.404 597.806 178.099 597.806 178.099L601.821 182.43C602.98 182.692 607.525 182.079 609.561 181.788C610.171 181.699 610.557 181.639 610.557 181.639L611.26 185.05Z" fill="#FDC2CC"/>
<path id="Vector_156" opacity="0.1" d="M620.995 169.669C620.995 169.669 618.385 167.278 614.461 175.023C610.538 182.769 609.642 181.517 609.642 181.517C609.642 181.517 610.444 184.937 610.043 185.619C610.043 185.619 612.753 185.39 613.757 185.619C614.761 185.847 620.986 176.96 620.986 176.96C620.986 176.96 624.208 171.948 620.995 169.669Z" fill="black"/>
<path id="Vector_157" opacity="0.1" d="M620.895 169.214C620.895 169.214 618.285 166.822 614.369 174.568C610.453 182.314 609.549 181.062 609.549 181.062C609.549 181.062 612.661 184.935 613.665 185.163C614.669 185.392 620.894 176.505 620.894 176.505C620.894 176.505 624.109 171.492 620.895 169.214Z" fill="black"/>
<path id="Vector_158" opacity="0.1" d="M609.96 184.885C610.001 184.041 609.721 182.558 609.559 181.788C610.169 181.699 610.555 181.639 610.555 181.639L611.258 185.059L609.96 184.885Z" fill="black"/>
<path id="Vector_159" d="M620.995 169.441C620.995 169.441 618.385 167.049 614.461 174.797C610.538 182.545 609.642 181.29 609.642 181.29C609.642 181.29 610.444 184.71 610.043 185.392C610.043 185.392 612.753 185.163 613.757 185.392C614.761 185.621 620.986 176.733 620.986 176.733C620.986 176.733 624.208 171.719 620.995 169.441Z" fill="#E1A0A7"/>
<path id="Vector_160" opacity="0.1" d="M620.3 162.035L615.473 165.221C615.677 165.558 615.866 165.906 616.038 166.264C616.316 166.328 616.598 166.361 616.882 166.361C618.168 166.361 618.765 164.828 619.543 163.796C619.487 162.975 620.078 162.954 620.3 162.035Z" fill="black"/>
<path id="Vector_161" d="M616.778 166.138C619.107 166.138 620.995 163.996 620.995 161.353C620.995 158.71 619.107 156.567 616.778 156.567C614.449 156.567 612.561 158.71 612.561 161.353C612.561 163.996 614.449 166.138 616.778 166.138Z" fill="#FDC2CC"/>
<path id="Vector_162" opacity="0.1" d="M611.448 157.482C611.873 156.987 612.426 156.658 613.026 156.541C613.612 156.398 614.254 156.355 614.721 155.93C615.251 155.449 615.488 154.534 616.142 154.329C616.425 154.265 616.72 154.291 616.991 154.406C618.034 154.764 618.959 155.464 619.65 156.42C619.814 156.694 620.022 156.929 620.264 157.114C620.409 157.183 620.549 157.261 620.686 157.347C620.836 157.482 620.954 157.658 621.029 157.858C621.5 158.937 621.608 160.173 621.334 161.336C621.17 162.022 620.877 162.659 620.701 163.343C620.526 164.027 620.483 164.8 620.801 165.412C620.492 165.591 620.102 165.365 619.908 165.038C619.714 164.711 619.656 164.309 619.554 163.93C619.354 163.188 618.978 162.522 618.466 162.007C618.149 161.69 617.584 161.477 617.364 161.885C617.279 162.043 617.285 162.246 617.211 162.411C617.068 162.733 616.646 162.798 616.377 162.624C616.112 162.417 615.925 162.103 615.855 161.746C615.443 160.158 614.736 159.16 613.241 159.837C612.676 160.089 612.026 160.265 611.489 159.837C610.802 159.264 610.939 158.129 611.448 157.482Z" fill="black"/>
<path id="Vector_163" d="M611.448 157.366C611.873 156.872 612.426 156.542 613.026 156.426C613.612 156.283 614.254 156.24 614.721 155.815C615.251 155.334 615.488 154.419 616.142 154.214C616.425 154.149 616.72 154.176 616.991 154.291C618.034 154.648 618.959 155.349 619.65 156.304C619.814 156.578 620.022 156.814 620.264 156.999C620.409 157.068 620.549 157.146 620.686 157.232C620.836 157.367 620.954 157.543 621.029 157.743C621.5 158.821 621.608 160.057 621.334 161.22C621.17 161.906 620.877 162.543 620.701 163.227C620.526 163.911 620.483 164.685 620.801 165.296C620.492 165.476 620.102 165.249 619.908 164.922C619.714 164.595 619.656 164.193 619.554 163.815C619.354 163.072 618.978 162.407 618.466 161.891C618.149 161.575 617.584 161.361 617.364 161.77C617.279 161.928 617.285 162.131 617.211 162.295C617.068 162.618 616.646 162.682 616.377 162.509C616.112 162.301 615.925 161.988 615.855 161.631C615.443 160.043 614.736 159.044 613.241 159.722C612.676 159.974 612.026 160.149 611.489 159.722C610.802 159.151 610.939 158.016 611.448 157.366Z" fill="#8F5A6A"/>
<path id="Vector_164" opacity="0.05" d="M621.479 168.246H619.439C619.439 168.246 615.424 170.524 615.324 170.411C615.256 170.334 614.635 170.467 614.241 170.558C614.303 170.305 614.346 170.046 614.369 169.785C615.674 169.671 618.89 167.164 618.89 167.164L621.4 166.709V168.19C621.428 168.205 621.455 168.224 621.479 168.246V168.246Z" fill="black"/>
<path id="Vector_165" opacity="0.3" d="M620.217 235.084C620.211 235.5 620.169 235.914 620.091 236.32C620.091 236.32 611.759 237.004 609.148 236.775C607.892 236.666 607.359 236.134 607.265 235.625C607.15 236.211 607.606 236.982 609.148 237.121C611.759 237.35 620.091 236.666 620.091 236.666C620.189 236.146 620.232 235.615 620.217 235.084Z" fill="white"/>
<g id="Group_5" opacity="0.05">
<path id="Vector_166" opacity="0.05" d="M609.199 192.683C607.845 193.901 606.647 194.393 605.86 194.606C605.86 194.692 605.875 194.775 605.886 194.856C605.886 194.856 607.794 194.97 610.203 192.807C610.576 192.444 611.017 192.182 611.493 192.041C610.968 191.749 610.218 191.768 609.199 192.683Z" fill="black"/>
<path id="Vector_167" opacity="0.05" d="M622.824 171.322C622.464 170.122 621.943 168.603 621.53 168.244C621.505 168.22 621.477 168.201 621.447 168.186C621.447 168.186 620.617 168.218 620.645 168.244C621.057 168.601 621.46 170.009 621.82 171.206C622.112 172.179 622.187 173.219 622.039 174.233C621.681 176.678 620.909 181.714 620.042 186.072C618.837 192.11 617.532 190.742 616.931 192.223C616.437 193.437 616.684 195.032 616.791 195.568C617.116 195.753 617.472 195.855 617.835 195.87C617.835 195.87 617.332 193.82 617.935 192.339C618.537 190.857 619.843 192.225 621.046 186.187C621.918 181.818 622.685 176.783 623.043 174.348C623.191 173.334 623.116 172.295 622.824 171.322V171.322Z" fill="black"/>
</g>
<path id="Vector_168" d="M634.492 192.604C634.837 192.284 635.089 191.853 635.214 191.368C635.308 190.877 635.123 190.289 634.709 190.109C634.246 189.908 633.75 190.272 633.375 190.641C633.001 191.011 632.569 191.43 632.078 191.351C632.33 191.091 632.519 190.761 632.626 190.394C632.733 190.026 632.754 189.634 632.688 189.254C632.667 189.097 632.608 188.949 632.518 188.827C632.26 188.515 631.795 188.649 631.486 188.895C630.507 189.677 630.234 191.186 630.228 192.546C630.13 192.056 630.213 191.546 630.209 191.05C630.205 190.554 630.085 189.981 629.712 189.72C629.481 189.579 629.221 189.509 628.959 189.517C628.518 189.498 628.028 189.549 627.727 189.915C627.35 190.368 627.45 191.131 627.776 191.625C628.102 192.118 628.595 192.437 629.051 192.783C629.416 193.03 629.728 193.366 629.962 193.768C629.99 193.824 630.013 193.883 630.03 193.944H632.79C633.408 193.586 633.981 193.135 634.492 192.604V192.604Z" fill="#0D6EFD"/>
<path id="Vector_169" d="M639.561 232.737C640 232.274 640.412 231.726 640.54 231.062C640.668 230.397 640.418 229.598 639.856 229.352C639.229 229.078 638.557 229.566 638.048 230.072C637.54 230.579 636.956 231.141 636.291 231.034C636.633 230.681 636.89 230.234 637.034 229.736C637.179 229.238 637.208 228.706 637.118 228.191C637.089 227.979 637.009 227.779 636.888 227.614C636.54 227.187 635.907 227.373 635.491 227.706C634.172 228.775 633.795 230.812 633.786 232.654C633.652 231.989 633.765 231.297 633.761 230.615C633.758 229.933 633.594 229.179 633.087 228.811C632.772 228.619 632.417 228.524 632.059 228.537C631.462 228.512 630.797 228.58 630.39 229.076C629.883 229.692 630.013 230.724 630.456 231.402C630.899 232.079 631.567 232.504 632.183 232.973C632.678 233.307 633.099 233.764 633.417 234.308C633.454 234.385 633.485 234.465 633.509 234.548H637.252C638.09 234.065 638.866 233.456 639.561 232.737V232.737Z" fill="#0D6EFD"/>
</g>
<path id="Vector_170" d="M542.647 84.6329C542.019 84.0392 533.965 74.4408 532.606 72.8575C531.141 71.2743 530.514 71.5711 529.572 71.6701C528.631 71.769 518.485 73.4512 517.334 73.5502C516.184 73.7481 515.452 74.1439 516.184 75.1334C516.811 76.024 523.506 84.9298 524.97 87.0078L498.298 93.0439L477.169 59.4989C476.332 58.3114 476.123 57.9156 474.24 58.0146C472.357 58.1135 457.609 59.3009 456.563 59.3009C455.517 59.3999 454.367 59.7957 455.413 62.1706C456.458 64.5455 473.194 98.5853 473.613 99.5748C474.031 100.564 475.286 102.148 478.11 101.554C481.039 100.861 491.08 98.3874 496.624 97.002C499.553 101.95 505.41 112.043 506.561 113.527C508.025 115.506 509.071 115.11 511.268 114.517C513.046 114.022 538.672 105.314 539.823 104.819C540.973 104.325 541.706 104.028 540.869 102.939C540.241 102.148 533.547 93.5387 529.991 89.0858C532.396 88.492 541.078 86.3151 542.019 86.0182C543.065 85.7214 543.275 85.2266 542.647 84.6329V84.6329ZM494.218 94.0335C493.904 94.1324 478.947 97.4968 478.215 97.6947C477.378 97.8926 477.378 97.7937 477.378 97.4968C477.169 97.1999 459.596 62.7643 459.283 62.3685C459.073 61.9727 459.073 61.5769 459.283 61.5769C459.492 61.5769 473.403 60.3895 473.822 60.3895C474.345 60.3895 474.24 60.4884 474.449 60.7853C474.449 60.7853 494.009 92.7471 494.323 93.2418C494.741 93.7366 494.532 93.9345 494.218 94.0334V94.0335ZM536.267 101.455C536.476 101.851 536.79 102.049 535.953 102.247C535.221 102.543 510.745 110.361 510.222 110.559C509.699 110.756 509.385 110.855 508.757 109.965C508.13 109.074 500.18 96.1114 500.18 96.1114L526.225 89.6795C526.853 89.4816 527.062 89.3826 527.48 89.9764C527.899 90.669 536.057 101.158 536.267 101.455V101.455ZM537.94 84.0392C537.312 84.1382 527.794 86.4141 527.794 86.4141L519.949 76.3209C519.74 76.024 519.531 75.7272 520.054 75.6282C520.577 75.5293 529.468 74.045 529.886 73.946C530.304 73.847 530.618 73.7481 531.141 74.4408C531.664 75.0345 538.358 83.1486 538.672 83.4455C538.986 83.7423 538.568 83.9402 537.94 84.0392V84.0392Z" fill="#FB503B"/>
</g>
<defs>
<linearGradient id="paint0_linear" x1="705.458" y1="221.83" x2="705.458" y2="149.469" gradientUnits="userSpaceOnUse">
<stop stop-color="#808080" stop-opacity="0.25"/>
<stop offset="0.54" stop-color="#808080" stop-opacity="0.12"/>
<stop offset="1" stop-color="#808080" stop-opacity="0.1"/>
</linearGradient>
<linearGradient id="paint1_linear" x1="11487.2" y1="65696.8" x2="11487.2" y2="32361.7" gradientUnits="userSpaceOnUse">
<stop stop-color="#808080" stop-opacity="0.25"/>
<stop offset="0.54" stop-color="#808080" stop-opacity="0.12"/>
<stop offset="1" stop-color="#808080" stop-opacity="0.1"/>
</linearGradient>
<clipPath id="clip0">
<rect width="1019.48" height="436.681" fill="white"/>
</clipPath>
<clipPath id="clip1">
<rect width="194" height="156" fill="white" transform="translate(554 90)"/>
</clipPath>
</defs>
</svg>
